<svg width="1440" height="102" viewBox="0 0 1440 102" fill="none" xmlns="http://www.w3.org/2000/svg">
<rect width="1440" height="102" fill="white"/>
<path d="M525.171 55.268C523.127 55.268 521.657 53.658 521.657 51.6C521.657 49.556 523.127 47.932 525.171 47.932C526.403 47.932 527.397 48.534 528.013 49.416L529.301 48.422C528.391 47.218 526.949 46.42 525.171 46.42C522.091 46.42 520.005 48.8 520.005 51.6C520.005 54.4 522.091 56.78 525.171 56.78C526.949 56.78 528.391 55.982 529.301 54.778L528.013 53.784C527.397 54.666 526.403 55.268 525.171 55.268ZM537.243 55.352L536.193 54.512C535.759 55.1 535.045 55.478 534.191 55.478C532.833 55.478 531.895 54.68 531.797 53.14H537.005C537.061 52.93 537.103 52.608 537.103 52.286C537.103 50.494 535.843 49.164 533.897 49.164C531.657 49.164 530.313 50.858 530.313 52.972C530.313 55.03 531.755 56.78 534.191 56.78C535.507 56.78 536.585 56.234 537.243 55.352ZM533.869 50.368C535.003 50.368 535.633 51.18 535.661 52.062H531.867C532.091 50.97 532.819 50.368 533.869 50.368ZM543.187 54.05C543.187 55.772 544.055 56.64 545.707 56.64C546.253 56.64 546.645 56.57 546.981 56.43V55.156C546.729 55.254 546.407 55.31 545.931 55.31C545.147 55.31 544.643 55.002 544.643 54.05V50.746H546.981V49.444H544.643V47.68H543.187V49.444H541.857V50.746H543.187V54.05ZM550.647 56.71C551.515 56.71 552.397 56.318 552.901 55.702V56.5H554.343V51.838C554.343 50.284 553.293 49.164 551.389 49.164C550.129 49.164 549.121 49.696 548.491 50.536L549.569 51.362C549.975 50.788 550.577 50.438 551.347 50.438C552.257 50.438 552.901 50.97 552.901 51.838V52.202L550.619 52.58C549.121 52.832 548.295 53.602 548.295 54.666C548.295 55.912 549.247 56.71 550.647 56.71ZM549.751 54.61C549.751 54.078 550.115 53.7 550.997 53.546L552.901 53.224V54.442C552.481 55.114 551.795 55.534 550.913 55.534C550.185 55.534 549.751 55.156 549.751 54.61ZM564.023 52.972C564.023 50.914 562.637 49.164 560.425 49.164C559.403 49.164 558.647 49.528 558.045 50.172V46H556.603V56.5H558.045V55.772C558.647 56.416 559.403 56.78 560.425 56.78C562.637 56.78 564.023 55.03 564.023 52.972ZM560.243 50.522C561.601 50.522 562.511 51.586 562.511 52.972C562.511 54.358 561.601 55.422 560.243 55.422C559.333 55.422 558.563 55.002 558.045 54.232V51.712C558.535 50.956 559.319 50.522 560.243 50.522ZM565.832 56.5H567.274V46H565.832V56.5ZM576.002 55.352L574.952 54.512C574.518 55.1 573.804 55.478 572.95 55.478C571.592 55.478 570.654 54.68 570.556 53.14H575.764C575.82 52.93 575.862 52.608 575.862 52.286C575.862 50.494 574.602 49.164 572.656 49.164C570.416 49.164 569.072 50.858 569.072 52.972C569.072 55.03 570.514 56.78 572.95 56.78C574.266 56.78 575.344 56.234 576.002 55.352ZM572.628 50.368C573.762 50.368 574.392 51.18 574.42 52.062H570.626C570.85 50.97 571.578 50.368 572.628 50.368ZM579.617 56.71C580.485 56.71 581.367 56.318 581.871 55.702V56.5H583.313V51.838C583.313 50.284 582.263 49.164 580.359 49.164C579.099 49.164 578.091 49.696 577.461 50.536L578.539 51.362C578.945 50.788 579.547 50.438 580.317 50.438C581.227 50.438 581.871 50.97 581.871 51.838V52.202L579.589 52.58C578.091 52.832 577.265 53.602 577.265 54.666C577.265 55.912 578.217 56.71 579.617 56.71ZM578.721 54.61C578.721 54.078 579.085 53.7 579.967 53.546L581.871 53.224V54.442C581.451 55.114 580.765 55.534 579.883 55.534C579.155 55.534 578.721 55.156 578.721 54.61ZM590.362 53.476C590.362 54.694 589.704 55.422 588.626 55.422C587.52 55.422 586.876 54.694 586.876 53.476V49.444H585.42V53.406C585.42 55.52 586.638 56.78 588.626 56.78C590.6 56.78 591.818 55.52 591.818 53.406V49.444H590.362V53.476ZM597.223 52.972C597.223 55.03 598.609 56.78 600.835 56.78C601.843 56.78 602.599 56.416 603.187 55.786V56.5H604.657V46H603.187V50.158C602.599 49.528 601.843 49.164 600.835 49.164C598.609 49.164 597.223 50.914 597.223 52.972ZM598.749 52.972C598.749 51.586 599.659 50.522 601.017 50.522C601.899 50.522 602.669 50.928 603.187 51.698V54.246C602.711 54.988 601.927 55.422 601.017 55.422C599.659 55.422 598.749 54.358 598.749 52.972ZM613.354 55.352L612.304 54.512C611.87 55.1 611.156 55.478 610.302 55.478C608.944 55.478 608.006 54.68 607.908 53.14H613.116C613.172 52.93 613.214 52.608 613.214 52.286C613.214 50.494 611.954 49.164 610.008 49.164C607.768 49.164 606.424 50.858 606.424 52.972C606.424 55.03 607.866 56.78 610.302 56.78C611.618 56.78 612.696 56.234 613.354 55.352ZM609.98 50.368C611.114 50.368 611.744 51.18 611.772 52.062H607.978C608.202 50.97 608.93 50.368 609.98 50.368ZM626.298 52.972C626.298 50.914 624.912 49.164 622.7 49.164C621.678 49.164 620.922 49.528 620.32 50.172V46H618.878V56.5H620.32V55.772C620.922 56.416 621.678 56.78 622.7 56.78C624.912 56.78 626.298 55.03 626.298 52.972ZM622.518 50.522C623.876 50.522 624.786 51.586 624.786 52.972C624.786 54.358 623.876 55.422 622.518 55.422C621.608 55.422 620.838 55.002 620.32 54.232V51.712C620.81 50.956 621.594 50.522 622.518 50.522ZM631.383 49.164C629.101 49.164 627.547 50.886 627.547 52.972C627.547 55.058 629.101 56.78 631.383 56.78C633.679 56.78 635.219 55.058 635.219 52.972C635.219 50.886 633.679 49.164 631.383 49.164ZM631.397 55.422C630.039 55.422 629.059 54.33 629.059 52.972C629.059 51.614 630.039 50.522 631.397 50.522C632.727 50.522 633.707 51.6 633.707 52.972C633.707 54.316 632.727 55.422 631.397 55.422ZM637.021 56.5H638.463V51.796C638.827 51.194 639.415 50.718 640.311 50.718C640.605 50.718 640.829 50.76 641.053 50.816V49.402C640.871 49.346 640.661 49.304 640.437 49.304C639.569 49.304 638.953 49.696 638.463 50.242V49.444H637.021V56.5ZM641.711 52.972C641.711 55.03 643.097 56.78 645.323 56.78C646.331 56.78 647.087 56.416 647.675 55.786V56.5H649.145V46H647.675V50.158C647.087 49.528 646.331 49.164 645.323 49.164C643.097 49.164 641.711 50.914 641.711 52.972ZM643.237 52.972C643.237 51.586 644.147 50.522 645.505 50.522C646.387 50.522 647.157 50.928 647.675 51.698V54.246C647.199 54.988 646.415 55.422 645.505 55.422C644.147 55.422 643.237 54.358 643.237 52.972ZM661.616 55.352L660.566 54.512C660.132 55.1 659.418 55.478 658.564 55.478C657.206 55.478 656.268 54.68 656.17 53.14H661.378C661.434 52.93 661.476 52.608 661.476 52.286C661.476 50.494 660.216 49.164 658.27 49.164C656.03 49.164 654.686 50.858 654.686 52.972C654.686 55.03 656.128 56.78 658.564 56.78C659.88 56.78 660.958 56.234 661.616 55.352ZM658.242 50.368C659.376 50.368 660.006 51.18 660.034 52.062H656.24C656.464 50.97 657.192 50.368 658.242 50.368ZM662.585 55.506C663.243 56.304 664.125 56.78 665.315 56.78C666.631 56.78 667.751 55.954 667.765 54.568C667.765 52.146 664.307 52.622 664.307 51.208C664.307 50.732 664.643 50.34 665.315 50.34C665.903 50.34 666.393 50.69 666.771 51.194L667.751 50.34C667.247 49.668 666.337 49.164 665.301 49.164C663.887 49.164 662.907 50.088 662.907 51.25C662.907 53.742 666.365 53.224 666.365 54.652C666.365 55.184 665.987 55.604 665.301 55.604C664.601 55.604 664.041 55.226 663.579 54.638L662.585 55.506ZM670.076 54.05C670.076 55.772 670.944 56.64 672.596 56.64C673.142 56.64 673.534 56.57 673.87 56.43V55.156C673.618 55.254 673.296 55.31 672.82 55.31C672.036 55.31 671.532 55.002 671.532 54.05V50.746H673.87V49.444H671.532V47.68H670.076V49.444H668.746V50.746H670.076V54.05ZM685.733 55.352L684.683 54.512C684.249 55.1 683.535 55.478 682.681 55.478C681.323 55.478 680.385 54.68 680.287 53.14H685.495C685.551 52.93 685.593 52.608 685.593 52.286C685.593 50.494 684.333 49.164 682.387 49.164C680.147 49.164 678.803 50.858 678.803 52.972C678.803 55.03 680.245 56.78 682.681 56.78C683.997 56.78 685.075 56.234 685.733 55.352ZM682.359 50.368C683.493 50.368 684.123 51.18 684.151 52.062H680.357C680.581 50.97 681.309 50.368 682.359 50.368ZM687.484 56.5H688.926V51.74C689.29 51.124 689.864 50.522 690.83 50.522C691.838 50.522 692.454 51.194 692.454 52.314V56.5H693.91V52.258C693.91 50.214 692.72 49.164 691.166 49.164C690.158 49.164 689.458 49.57 688.926 50.13V49.444H687.484V56.5ZM703.229 55.422C701.857 55.422 700.877 54.372 700.877 52.972C700.877 51.586 701.857 50.522 703.215 50.522C704.027 50.522 704.671 50.914 705.063 51.46L706.197 50.592C705.553 49.724 704.503 49.164 703.215 49.164C700.849 49.164 699.365 50.914 699.365 52.972C699.365 55.03 700.849 56.78 703.215 56.78C704.517 56.78 705.553 56.22 706.197 55.352L705.063 54.484C704.671 55.03 704.027 55.422 703.229 55.422ZM710.707 49.164C708.425 49.164 706.871 50.886 706.871 52.972C706.871 55.058 708.425 56.78 710.707 56.78C713.003 56.78 714.543 55.058 714.543 52.972C714.543 50.886 713.003 49.164 710.707 49.164ZM710.721 55.422C709.363 55.422 708.383 54.33 708.383 52.972C708.383 51.614 709.363 50.522 710.721 50.522C712.051 50.522 713.031 51.6 713.031 52.972C713.031 54.316 712.051 55.422 710.721 55.422ZM721.133 53.476C721.133 54.694 720.475 55.422 719.397 55.422C718.291 55.422 717.647 54.694 717.647 53.476V49.444H716.191V53.406C716.191 55.52 717.409 56.78 719.397 56.78C721.371 56.78 722.589 55.52 722.589 53.406V49.444H721.133V53.476ZM724.781 56.5H726.223V51.796C726.587 51.194 727.175 50.718 728.071 50.718C728.365 50.718 728.589 50.76 728.813 50.816V49.402C728.631 49.346 728.421 49.304 728.197 49.304C727.329 49.304 726.713 49.696 726.223 50.242V49.444H724.781V56.5ZM729.7 55.506C730.358 56.304 731.24 56.78 732.43 56.78C733.746 56.78 734.866 55.954 734.88 54.568C734.88 52.146 731.422 52.622 731.422 51.208C731.422 50.732 731.758 50.34 732.43 50.34C733.018 50.34 733.508 50.69 733.886 51.194L734.866 50.34C734.362 49.668 733.452 49.164 732.416 49.164C731.002 49.164 730.022 50.088 730.022 51.25C730.022 53.742 733.48 53.224 733.48 54.652C733.48 55.184 733.102 55.604 732.416 55.604C731.716 55.604 731.156 55.226 730.694 54.638L729.7 55.506ZM739.902 52.972C739.902 55.03 741.288 56.78 743.514 56.78C744.522 56.78 745.278 56.416 745.866 55.786V56.5H747.336V46H745.866V50.158C745.278 49.528 744.522 49.164 743.514 49.164C741.288 49.164 739.902 50.914 739.902 52.972ZM741.428 52.972C741.428 51.586 742.338 50.522 743.696 50.522C744.578 50.522 745.348 50.928 745.866 51.698V54.246C745.39 54.988 744.606 55.422 743.696 55.422C742.338 55.422 741.428 54.358 741.428 52.972ZM756.034 55.352L754.984 54.512C754.55 55.1 753.836 55.478 752.982 55.478C751.624 55.478 750.686 54.68 750.588 53.14H755.796C755.852 52.93 755.894 52.608 755.894 52.286C755.894 50.494 754.634 49.164 752.688 49.164C750.448 49.164 749.104 50.858 749.104 52.972C749.104 55.03 750.546 56.78 752.982 56.78C754.298 56.78 755.376 56.234 756.034 55.352ZM752.66 50.368C753.794 50.368 754.424 51.18 754.452 52.062H750.658C750.882 50.97 751.61 50.368 752.66 50.368ZM764.862 55.422C763.49 55.422 762.51 54.372 762.51 52.972C762.51 51.586 763.49 50.522 764.848 50.522C765.66 50.522 766.304 50.914 766.696 51.46L767.83 50.592C767.186 49.724 766.136 49.164 764.848 49.164C762.482 49.164 760.998 50.914 760.998 52.972C760.998 55.03 762.482 56.78 764.848 56.78C766.15 56.78 767.186 56.22 767.83 55.352L766.696 54.484C766.304 55.03 765.66 55.422 764.862 55.422ZM772.34 49.164C770.058 49.164 768.504 50.886 768.504 52.972C768.504 55.058 770.058 56.78 772.34 56.78C774.636 56.78 776.176 55.058 776.176 52.972C776.176 50.886 774.636 49.164 772.34 49.164ZM772.354 55.422C770.996 55.422 770.016 54.33 770.016 52.972C770.016 51.614 770.996 50.522 772.354 50.522C773.684 50.522 774.664 51.6 774.664 52.972C774.664 54.316 773.684 55.422 772.354 55.422ZM777.978 56.5H779.42V51.74C779.784 51.124 780.358 50.522 781.324 50.522C782.332 50.522 782.948 51.194 782.948 52.314V56.5H784.404V52.258C784.404 50.214 783.214 49.164 781.66 49.164C780.652 49.164 779.952 49.57 779.42 50.13V49.444H777.978V56.5ZM785.946 55.506C786.604 56.304 787.486 56.78 788.676 56.78C789.992 56.78 791.112 55.954 791.126 54.568C791.126 52.146 787.668 52.622 787.668 51.208C787.668 50.732 788.004 50.34 788.676 50.34C789.264 50.34 789.754 50.69 790.132 51.194L791.112 50.34C790.608 49.668 789.698 49.164 788.662 49.164C787.248 49.164 786.268 50.088 786.268 51.25C786.268 53.742 789.726 53.224 789.726 54.652C789.726 55.184 789.348 55.604 788.662 55.604C787.962 55.604 787.402 55.226 786.94 54.638L785.946 55.506ZM793.437 54.05C793.437 55.772 794.305 56.64 795.957 56.64C796.503 56.64 796.895 56.57 797.231 56.43V55.156C796.979 55.254 796.657 55.31 796.181 55.31C795.397 55.31 794.893 55.002 794.893 54.05V50.746H797.231V49.444H794.893V47.68H793.437V49.444H792.107V50.746H793.437V54.05ZM798.951 56.5H800.393V51.796C800.757 51.194 801.345 50.718 802.241 50.718C802.535 50.718 802.759 50.76 802.983 50.816V49.402C802.801 49.346 802.591 49.304 802.367 49.304C801.499 49.304 800.883 49.696 800.393 50.242V49.444H798.951V56.5ZM809.508 53.476C809.508 54.694 808.85 55.422 807.772 55.422C806.666 55.422 806.022 54.694 806.022 53.476V49.444H804.566V53.406C804.566 55.52 805.784 56.78 807.772 56.78C809.746 56.78 810.964 55.52 810.964 53.406V49.444H809.508V53.476ZM816.46 55.422C815.088 55.422 814.108 54.372 814.108 52.972C814.108 51.586 815.088 50.522 816.446 50.522C817.258 50.522 817.902 50.914 818.294 51.46L819.428 50.592C818.784 49.724 817.734 49.164 816.446 49.164C814.08 49.164 812.596 50.914 812.596 52.972C812.596 55.03 814.08 56.78 816.446 56.78C817.748 56.78 818.784 56.22 819.428 55.352L818.294 54.484C817.902 55.03 817.258 55.422 816.46 55.422ZM821.369 54.05C821.369 55.772 822.237 56.64 823.889 56.64C824.435 56.64 824.827 56.57 825.163 56.43V55.156C824.911 55.254 824.589 55.31 824.113 55.31C823.329 55.31 822.825 55.002 822.825 54.05V50.746H825.163V49.444H822.825V47.68H821.369V49.444H820.039V50.746H821.369V54.05ZM827.61 47.876C828.142 47.876 828.59 47.428 828.59 46.896C828.59 46.364 828.142 45.916 827.61 45.916C827.078 45.916 826.63 46.364 826.63 46.896C826.63 47.428 827.078 47.876 827.61 47.876ZM826.882 56.5H828.324V49.444H826.882V56.5ZM833.959 49.164C831.677 49.164 830.123 50.886 830.123 52.972C830.123 55.058 831.677 56.78 833.959 56.78C836.255 56.78 837.795 55.058 837.795 52.972C837.795 50.886 836.255 49.164 833.959 49.164ZM833.973 55.422C832.615 55.422 831.635 54.33 831.635 52.972C831.635 51.614 832.615 50.522 833.973 50.522C835.303 50.522 836.283 51.6 836.283 52.972C836.283 54.316 835.303 55.422 833.973 55.422ZM839.597 56.5H841.039V51.74C841.403 51.124 841.977 50.522 842.943 50.522C843.951 50.522 844.567 51.194 844.567 52.314V56.5H846.023V52.258C846.023 50.214 844.833 49.164 843.279 49.164C842.271 49.164 841.571 49.57 841.039 50.13V49.444H839.597V56.5ZM848.895 58.74L850.421 54.82H848.769L847.551 58.74H848.895ZM855.812 59.944H857.254V55.772C857.856 56.416 858.612 56.78 859.634 56.78C861.846 56.78 863.232 55.03 863.232 52.972C863.232 50.914 861.846 49.164 859.634 49.164C858.612 49.164 857.856 49.528 857.254 50.172V49.444H855.812V59.944ZM859.452 50.522C860.81 50.522 861.72 51.586 861.72 52.972C861.72 54.358 860.81 55.422 859.452 55.422C858.542 55.422 857.772 55.002 857.254 54.218V51.726C857.758 50.956 858.528 50.522 859.452 50.522ZM866.823 56.71C867.691 56.71 868.573 56.318 869.077 55.702V56.5H870.519V51.838C870.519 50.284 869.469 49.164 867.565 49.164C866.305 49.164 865.297 49.696 864.667 50.536L865.745 51.362C866.151 50.788 866.753 50.438 867.523 50.438C868.433 50.438 869.077 50.97 869.077 51.838V52.202L866.795 52.58C865.297 52.832 864.471 53.602 864.471 54.666C864.471 55.912 865.423 56.71 866.823 56.71ZM865.927 54.61C865.927 54.078 866.291 53.7 867.173 53.546L869.077 53.224V54.442C868.657 55.114 867.971 55.534 867.089 55.534C866.361 55.534 865.927 55.156 865.927 54.61ZM872.779 56.5H874.221V51.796C874.585 51.194 875.173 50.718 876.069 50.718C876.363 50.718 876.587 50.76 876.811 50.816V49.402C876.629 49.346 876.419 49.304 876.195 49.304C875.327 49.304 874.711 49.696 874.221 50.242V49.444H872.779V56.5ZM879.201 54.05C879.201 55.772 880.069 56.64 881.721 56.64C882.267 56.64 882.659 56.57 882.995 56.43V55.156C882.743 55.254 882.421 55.31 881.945 55.31C881.161 55.31 880.657 55.002 880.657 54.05V50.746H882.995V49.444H880.657V47.68H879.201V49.444H877.871V50.746H879.201V54.05ZM886.66 56.71C887.528 56.71 888.41 56.318 888.914 55.702V56.5H890.356V51.838C890.356 50.284 889.306 49.164 887.402 49.164C886.142 49.164 885.134 49.696 884.504 50.536L885.582 51.362C885.988 50.788 886.59 50.438 887.36 50.438C888.27 50.438 888.914 50.97 888.914 51.838V52.202L886.632 52.58C885.134 52.832 884.308 53.602 884.308 54.666C884.308 55.912 885.26 56.71 886.66 56.71ZM885.764 54.61C885.764 54.078 886.128 53.7 887.01 53.546L888.914 53.224V54.442C888.494 55.114 887.808 55.534 886.926 55.534C886.198 55.534 885.764 55.156 885.764 54.61ZM891.861 57.76C891.861 59.202 893.205 60 895.375 60C897.517 60 899.001 58.852 899.001 57.326C899.001 56.052 898.091 55.114 896.271 55.114H894.353C893.975 55.114 893.821 54.946 893.821 54.652C893.821 54.442 893.947 54.232 894.171 54.05C894.437 54.106 894.717 54.148 895.025 54.148C896.775 54.148 897.825 53.014 897.825 51.642C897.825 51.306 897.755 50.97 897.629 50.676H899.015V49.444H896.411C896.019 49.262 895.557 49.164 895.025 49.164C893.303 49.164 892.253 50.284 892.253 51.642C892.253 52.426 892.603 53.14 893.219 53.602C892.673 53.98 892.407 54.428 892.407 54.988C892.407 55.352 892.561 55.73 892.869 55.996C892.211 56.486 891.861 57.046 891.861 57.76ZM895.039 53.042C894.129 53.042 893.597 52.44 893.597 51.642C893.597 50.858 894.129 50.27 895.039 50.27C895.949 50.27 896.481 50.858 896.481 51.642C896.481 52.44 895.949 53.042 895.039 53.042ZM893.233 57.564C893.233 57.06 893.499 56.682 893.891 56.374H896.131C897.209 56.374 897.559 56.85 897.559 57.452C897.559 58.278 896.747 58.824 895.347 58.824C894.017 58.824 893.233 58.348 893.233 57.564ZM903.89 48.324L905.542 46H903.946L902.49 48.324H903.89ZM906.452 55.352L905.402 54.512C904.968 55.1 904.254 55.478 903.4 55.478C902.042 55.478 901.104 54.68 901.006 53.14H906.214C906.27 52.93 906.312 52.608 906.312 52.286C906.312 50.494 905.052 49.164 903.106 49.164C900.866 49.164 899.522 50.858 899.522 52.972C899.522 55.03 900.964 56.78 903.4 56.78C904.716 56.78 905.794 56.234 906.452 55.352ZM903.078 50.368C904.212 50.368 904.842 51.18 904.87 52.062H901.076C901.3 50.97 902.028 50.368 903.078 50.368ZM913.978 48.324H915.378L913.922 46H912.326L913.978 48.324ZM913.922 56.71C914.79 56.71 915.672 56.318 916.176 55.702V56.5H917.618V51.838C917.618 50.284 916.568 49.164 914.664 49.164C913.404 49.164 912.396 49.696 911.766 50.536L912.844 51.362C913.25 50.788 913.852 50.438 914.622 50.438C915.532 50.438 916.176 50.97 916.176 51.838V52.202L913.894 52.58C912.396 52.832 911.57 53.602 911.57 54.666C911.57 55.912 912.522 56.71 913.922 56.71ZM913.026 54.61C913.026 54.078 913.39 53.7 914.272 53.546L916.176 53.224V54.442C915.756 55.114 915.07 55.534 914.188 55.534C913.46 55.534 913.026 55.156 913.026 54.61ZM923.092 52.972C923.092 55.03 924.478 56.78 926.704 56.78C927.712 56.78 928.468 56.416 929.056 55.786V56.5H930.526V46H929.056V50.158C928.468 49.528 927.712 49.164 926.704 49.164C924.478 49.164 923.092 50.914 923.092 52.972ZM924.618 52.972C924.618 51.586 925.528 50.522 926.886 50.522C927.768 50.522 928.538 50.928 929.056 51.698V54.246C928.58 54.988 927.796 55.422 926.886 55.422C925.528 55.422 924.618 54.358 924.618 52.972ZM939.223 55.352L938.173 54.512C937.739 55.1 937.025 55.478 936.171 55.478C934.813 55.478 933.875 54.68 933.777 53.14H938.985C939.041 52.93 939.083 52.608 939.083 52.286C939.083 50.494 937.823 49.164 935.877 49.164C933.637 49.164 932.293 50.858 932.293 52.972C932.293 55.03 933.735 56.78 936.171 56.78C937.487 56.78 938.565 56.234 939.223 55.352ZM935.849 50.368C936.983 50.368 937.613 51.18 937.641 52.062H933.847C934.071 50.97 934.799 50.368 935.849 50.368ZM940.192 55.506C940.85 56.304 941.732 56.78 942.922 56.78C944.238 56.78 945.358 55.954 945.372 54.568C945.372 52.146 941.914 52.622 941.914 51.208C941.914 50.732 942.25 50.34 942.922 50.34C943.51 50.34 944 50.69 944.378 51.194L945.358 50.34C944.854 49.668 943.944 49.164 942.908 49.164C941.494 49.164 940.514 50.088 940.514 51.25C940.514 53.742 943.972 53.224 943.972 54.652C943.972 55.184 943.594 55.604 942.908 55.604C942.208 55.604 941.648 55.226 941.186 54.638L940.192 55.506ZM950.045 49.444V50.746H951.375V56.5H952.831V50.746H955.169V49.444H952.831V48.59C952.831 47.792 953.307 47.302 954.021 47.302C954.413 47.302 954.721 47.428 954.959 47.61L955.575 46.392C955.169 46.168 954.637 46 953.993 46C952.355 46 951.375 47.134 951.375 48.632V49.444H950.045ZM957.261 47.876C957.793 47.876 958.241 47.428 958.241 46.896C958.241 46.364 957.793 45.916 957.261 45.916C956.729 45.916 956.281 46.364 956.281 46.896C956.281 47.428 956.729 47.876 957.261 47.876ZM956.533 56.5H957.975V49.444H956.533V56.5ZM960.334 56.5H961.776V51.74C962.14 51.124 962.714 50.522 963.68 50.522C964.688 50.522 965.304 51.194 965.304 52.314V56.5H966.76V52.258C966.76 50.214 965.57 49.164 964.016 49.164C963.008 49.164 962.308 49.57 961.776 50.13V49.444H960.334V56.5ZM968.302 55.506C968.96 56.304 969.842 56.78 971.032 56.78C972.348 56.78 973.468 55.954 973.482 54.568C973.482 52.146 970.024 52.622 970.024 51.208C970.024 50.732 970.36 50.34 971.032 50.34C971.62 50.34 972.11 50.69 972.488 51.194L973.468 50.34C972.964 49.668 972.054 49.164 971.018 49.164C969.604 49.164 968.624 50.088 968.624 51.25C968.624 53.742 972.082 53.224 972.082 54.652C972.082 55.184 971.704 55.604 971.018 55.604C970.318 55.604 969.758 55.226 969.296 54.638L968.302 55.506ZM978.504 52.972C978.504 55.03 979.89 56.78 982.116 56.78C983.124 56.78 983.88 56.416 984.468 55.786V56.5H985.938V46H984.468V50.158C983.88 49.528 983.124 49.164 982.116 49.164C979.89 49.164 978.504 50.914 978.504 52.972ZM980.03 52.972C980.03 51.586 980.94 50.522 982.298 50.522C983.18 50.522 983.95 50.928 984.468 51.698V54.246C983.992 54.988 983.208 55.422 982.298 55.422C980.94 55.422 980.03 54.358 980.03 52.972ZM988.963 50.578L990.489 46.7H988.851L987.633 50.578H988.963ZM993.506 56.71C994.374 56.71 995.256 56.318 995.76 55.702V56.5H997.202V51.838C997.202 50.284 996.152 49.164 994.248 49.164C992.988 49.164 991.98 49.696 991.35 50.536L992.428 51.362C992.834 50.788 993.436 50.438 994.206 50.438C995.116 50.438 995.76 50.97 995.76 51.838V52.202L993.478 52.58C991.98 52.832 991.154 53.602 991.154 54.666C991.154 55.912 992.106 56.71 993.506 56.71ZM992.61 54.61C992.61 54.078 992.974 53.7 993.856 53.546L995.76 53.224V54.442C995.34 55.114 994.654 55.534 993.772 55.534C993.044 55.534 992.61 55.156 992.61 54.61ZM999.462 56.5H1000.9V51.74C1001.24 51.138 1001.77 50.522 1002.67 50.522C1003.59 50.522 1004.15 51.138 1004.15 52.174V56.5H1005.61V52.118C1005.61 51.978 1005.61 51.852 1005.59 51.726C1005.97 51.054 1006.52 50.522 1007.36 50.522C1008.27 50.522 1008.84 51.138 1008.84 52.174V56.5H1010.3V52.118C1010.3 50.172 1009.16 49.164 1007.69 49.164C1006.48 49.164 1005.78 49.738 1005.23 50.438C1004.78 49.598 1003.97 49.164 1003 49.164C1002.07 49.164 1001.41 49.556 1000.9 50.102V49.444H999.462V56.5ZM1016.34 48.324L1017.99 46H1016.4L1014.94 48.324H1016.34ZM1018.9 55.352L1017.85 54.512C1017.42 55.1 1016.7 55.478 1015.85 55.478C1014.49 55.478 1013.55 54.68 1013.46 53.14H1018.66C1018.72 52.93 1018.76 52.608 1018.76 52.286C1018.76 50.494 1017.5 49.164 1015.56 49.164C1013.32 49.164 1011.97 50.858 1011.97 52.972C1011.97 55.03 1013.41 56.78 1015.85 56.78C1017.17 56.78 1018.24 56.234 1018.9 55.352ZM1015.53 50.368C1016.66 50.368 1017.29 51.18 1017.32 52.062H1013.53C1013.75 50.97 1014.48 50.368 1015.53 50.368ZM1020.65 56.5H1022.1V46H1020.65V56.5ZM1025.18 47.876C1025.71 47.876 1026.16 47.428 1026.16 46.896C1026.16 46.364 1025.71 45.916 1025.18 45.916C1024.65 45.916 1024.2 46.364 1024.2 46.896C1024.2 47.428 1024.65 47.876 1025.18 47.876ZM1024.45 56.5H1025.9V49.444H1024.45V56.5ZM1031.53 49.164C1029.25 49.164 1027.7 50.886 1027.7 52.972C1027.7 55.058 1029.25 56.78 1031.53 56.78C1033.83 56.78 1035.37 55.058 1035.37 52.972C1035.37 50.886 1033.83 49.164 1031.53 49.164ZM1031.55 55.422C1030.19 55.422 1029.21 54.33 1029.21 52.972C1029.21 51.614 1030.19 50.522 1031.55 50.522C1032.88 50.522 1033.86 51.6 1033.86 52.972C1033.86 54.316 1032.88 55.422 1031.55 55.422ZM1037.17 56.5H1038.61V51.796C1038.98 51.194 1039.56 50.718 1040.46 50.718C1040.75 50.718 1040.98 50.76 1041.2 50.816V49.402C1041.02 49.346 1040.81 49.304 1040.59 49.304C1039.72 49.304 1039.1 49.696 1038.61 50.242V49.444H1037.17V56.5ZM1044.41 56.71C1045.27 56.71 1046.16 56.318 1046.66 55.702V56.5H1048.1V51.838C1048.1 50.284 1047.05 49.164 1045.15 49.164C1043.89 49.164 1042.88 49.696 1042.25 50.536L1043.33 51.362C1043.73 50.788 1044.34 50.438 1045.11 50.438C1046.02 50.438 1046.66 50.97 1046.66 51.838V52.202L1044.38 52.58C1042.88 52.832 1042.05 53.602 1042.05 54.666C1042.05 55.912 1043.01 56.71 1044.41 56.71ZM1043.51 54.61C1043.51 54.078 1043.87 53.7 1044.76 53.546L1046.66 53.224V54.442C1046.24 55.114 1045.55 55.534 1044.67 55.534C1043.94 55.534 1043.51 55.156 1043.51 54.61ZM1050.78 54.05C1050.78 55.772 1051.65 56.64 1053.3 56.64C1053.85 56.64 1054.24 56.57 1054.58 56.43V55.156C1054.32 55.254 1054 55.31 1053.53 55.31C1052.74 55.31 1052.24 55.002 1052.24 54.05V50.746H1054.58V49.444H1052.24V47.68H1050.78V49.444H1049.45V50.746H1050.78V54.05ZM1057.02 47.876C1057.56 47.876 1058 47.428 1058 46.896C1058 46.364 1057.56 45.916 1057.02 45.916C1056.49 45.916 1056.04 46.364 1056.04 46.896C1056.04 47.428 1056.49 47.876 1057.02 47.876ZM1056.3 56.5H1057.74V49.444H1056.3V56.5ZM1063.37 49.164C1061.09 49.164 1059.54 50.886 1059.54 52.972C1059.54 55.058 1061.09 56.78 1063.37 56.78C1065.67 56.78 1067.21 55.058 1067.21 52.972C1067.21 50.886 1065.67 49.164 1063.37 49.164ZM1063.39 55.422C1062.03 55.422 1061.05 54.33 1061.05 52.972C1061.05 51.614 1062.03 50.522 1063.39 50.522C1064.72 50.522 1065.7 51.6 1065.7 52.972C1065.7 54.316 1064.72 55.422 1063.39 55.422ZM1069.01 56.5H1070.45V51.74C1070.82 51.124 1071.39 50.522 1072.36 50.522C1073.37 50.522 1073.98 51.194 1073.98 52.314V56.5H1075.44V52.258C1075.44 50.214 1074.25 49.164 1072.69 49.164C1071.69 49.164 1070.99 49.57 1070.45 50.13V49.444H1069.01V56.5ZM1082.36 52.636C1082.36 50.256 1083.23 48.324 1084.7 46.868L1083.65 46C1082.05 47.512 1080.92 49.794 1080.92 52.636C1080.92 55.45 1081.96 57.732 1083.65 59.3L1084.7 58.432C1083.17 56.92 1082.36 55.044 1082.36 52.636ZM1088.8 55.422C1087.43 55.422 1086.45 54.372 1086.45 52.972C1086.45 51.586 1087.43 50.522 1088.79 50.522C1089.6 50.522 1090.25 50.914 1090.64 51.46L1091.77 50.592C1091.13 49.724 1090.08 49.164 1088.79 49.164C1086.42 49.164 1084.94 50.914 1084.94 52.972C1084.94 55.03 1086.42 56.78 1088.79 56.78C1090.09 56.78 1091.13 56.22 1091.77 55.352L1090.64 54.484C1090.25 55.03 1089.6 55.422 1088.8 55.422ZM1096.28 49.164C1094 49.164 1092.45 50.886 1092.45 52.972C1092.45 55.058 1094 56.78 1096.28 56.78C1098.58 56.78 1100.12 55.058 1100.12 52.972C1100.12 50.886 1098.58 49.164 1096.28 49.164ZM1096.3 55.422C1094.94 55.422 1093.96 54.33 1093.96 52.972C1093.96 51.614 1094.94 50.522 1096.3 50.522C1097.63 50.522 1098.61 51.6 1098.61 52.972C1098.61 54.316 1097.63 55.422 1096.3 55.422ZM1101.92 56.5H1103.36V51.74C1103.73 51.124 1104.3 50.522 1105.27 50.522C1106.27 50.522 1106.89 51.194 1106.89 52.314V56.5H1108.35V52.258C1108.35 50.214 1107.16 49.164 1105.6 49.164C1104.59 49.164 1103.89 49.57 1103.36 50.13V49.444H1101.92V56.5ZM1109.68 49.444V50.746H1111.01V56.5H1112.46V50.746H1114.8V49.444H1112.46V48.59C1112.46 47.792 1112.94 47.302 1113.65 47.302C1114.05 47.302 1114.35 47.428 1114.59 47.61L1115.21 46.392C1114.8 46.168 1114.27 46 1113.63 46C1111.99 46 1111.01 47.134 1111.01 48.632V49.444H1109.68ZM1116.89 47.876C1117.43 47.876 1117.87 47.428 1117.87 46.896C1117.87 46.364 1117.43 45.916 1116.89 45.916C1116.36 45.916 1115.91 46.364 1115.91 46.896C1115.91 47.428 1116.36 47.876 1116.89 47.876ZM1116.17 56.5H1117.61V49.444H1116.17V56.5ZM1119.41 52.972C1119.41 55.03 1120.79 56.78 1123.02 56.78C1124.03 56.78 1124.78 56.416 1125.37 55.786V56.5H1126.84V46H1125.37V50.158C1124.78 49.528 1124.03 49.164 1123.02 49.164C1120.79 49.164 1119.41 50.914 1119.41 52.972ZM1120.93 52.972C1120.93 51.586 1121.84 50.522 1123.2 50.522C1124.08 50.522 1124.85 50.928 1125.37 51.698V54.246C1124.89 54.988 1124.11 55.422 1123.2 55.422C1121.84 55.422 1120.93 54.358 1120.93 52.972ZM1135.54 55.352L1134.49 54.512C1134.05 55.1 1133.34 55.478 1132.49 55.478C1131.13 55.478 1130.19 54.68 1130.09 53.14H1135.3C1135.36 52.93 1135.4 52.608 1135.4 52.286C1135.4 50.494 1134.14 49.164 1132.19 49.164C1129.95 49.164 1128.61 50.858 1128.61 52.972C1128.61 55.03 1130.05 56.78 1132.49 56.78C1133.8 56.78 1134.88 56.234 1135.54 55.352ZM1132.16 50.368C1133.3 50.368 1133.93 51.18 1133.96 52.062H1130.16C1130.39 50.97 1131.11 50.368 1132.16 50.368ZM1137.29 56.5H1138.73V51.74C1139.09 51.124 1139.67 50.522 1140.63 50.522C1141.64 50.522 1142.26 51.194 1142.26 52.314V56.5H1143.71V52.258C1143.71 50.214 1142.52 49.164 1140.97 49.164C1139.96 49.164 1139.26 49.57 1138.73 50.13V49.444H1137.29V56.5ZM1146.38 54.05C1146.38 55.772 1147.24 56.64 1148.9 56.64C1149.44 56.64 1149.83 56.57 1150.17 56.43V55.156C1149.92 55.254 1149.6 55.31 1149.12 55.31C1148.34 55.31 1147.83 55.002 1147.83 54.05V50.746H1150.17V49.444H1147.83V47.68H1146.38V49.444H1145.05V50.746H1146.38V54.05ZM1152.62 47.876C1153.15 47.876 1153.6 47.428 1153.6 46.896C1153.6 46.364 1153.15 45.916 1152.62 45.916C1152.09 45.916 1151.64 46.364 1151.64 46.896C1151.64 47.428 1152.09 47.876 1152.62 47.876ZM1151.89 56.5H1153.33V49.444H1151.89V56.5ZM1162.06 55.352L1161.01 54.512C1160.58 55.1 1159.86 55.478 1159.01 55.478C1157.65 55.478 1156.71 54.68 1156.61 53.14H1161.82C1161.88 52.93 1161.92 52.608 1161.92 52.286C1161.92 50.494 1160.66 49.164 1158.71 49.164C1156.47 49.164 1155.13 50.858 1155.13 52.972C1155.13 55.03 1156.57 56.78 1159.01 56.78C1160.32 56.78 1161.4 56.234 1162.06 55.352ZM1158.69 50.368C1159.82 50.368 1160.45 51.18 1160.48 52.062H1156.68C1156.91 50.97 1157.64 50.368 1158.69 50.368ZM1163.81 56.5H1165.25V46H1163.81V56.5ZM1169.1 52.664C1169.1 55.058 1168.26 56.962 1166.76 58.432L1167.81 59.3C1169.45 57.774 1170.54 55.492 1170.54 52.664C1170.54 49.836 1169.47 47.54 1167.81 46L1166.76 46.868C1168.27 48.352 1169.1 50.27 1169.1 52.664Z" fill="#000638"/>
<rect x="506.333" y="40" width="4.14773" height="22" rx="2.07387" fill="#FFAD1D"/>
<rect x="113.274" width="124.438" height="102" fill="white"/>
<path fill-rule="evenodd" clip-rule="evenodd" d="M151.927 86.498L150.928 87.4112H150.67L151.261 86.3691H151.927V86.498ZM151.207 90.0324H150.992C150.723 90.3547 150.423 90.6126 150.133 90.6126C149.832 90.6126 149.681 90.4299 149.681 90.0324C149.681 89.8713 149.703 89.6994 149.735 89.549L151.486 88.9689C151.83 88.1524 151.422 87.7979 150.938 87.7979C150.111 87.7979 149.166 89.2482 149.166 90.4084C149.166 90.9563 149.424 91.2571 149.832 91.2571C150.304 91.2464 150.799 90.7844 151.207 90.0324ZM150.605 88.2706C150.842 88.2706 151.046 88.4532 150.938 88.8722L149.853 89.1623C150.025 88.6466 150.347 88.2706 150.605 88.2706ZM147.189 88.2921H147.769L146.845 90.8274C146.759 91.0423 146.877 91.2571 147.103 91.2571C147.758 91.2571 148.543 90.6985 148.843 89.9035H148.682C148.446 90.2366 147.93 90.6018 147.544 90.6663L148.392 88.2921H149.262L149.37 87.9268H148.521L148.843 87.0137H148.51L147.909 87.9268L147.189 88.0235V88.2921ZM146.383 87.8087C146.501 87.8087 146.663 87.9376 146.587 88.1739L145.545 90.6985C145.814 90.6555 146.093 90.3977 146.254 90.1614H146.426C146.179 90.7952 145.621 91.2571 145.137 91.2571C145.019 91.2571 144.847 91.1282 144.933 90.8919L145.9 88.3673C145.631 88.4103 145.352 88.6681 145.191 88.9044H145.03C145.277 88.2599 145.878 87.8087 146.383 87.8087ZM146.684 87.1641C146.899 87.1641 147.082 86.9922 147.082 86.7666C147.082 86.5518 146.899 86.3691 146.684 86.3691C146.459 86.3691 146.287 86.5518 146.287 86.7666C146.287 86.9815 146.469 87.1641 146.684 87.1641ZM141.989 89.259C142.226 88.7433 142.14 88.507 141.989 88.507C141.861 88.507 141.71 88.6466 141.56 88.9044H141.399C141.646 88.3566 141.968 87.8087 142.322 87.8087C142.623 87.8087 142.731 88.1095 142.731 88.4425V88.9152C142.78 88.8583 142.827 88.8025 142.874 88.7479C143.328 88.2153 143.674 87.8087 144.074 87.8087C144.385 87.8087 144.546 88.002 144.546 88.2921C144.546 88.464 144.493 88.6788 144.374 88.9044L143.483 90.6985C143.751 90.6555 144.031 90.3977 144.192 90.1614H144.353C144.106 90.8059 143.504 91.2571 142.999 91.2571C142.774 91.2571 142.645 91.0208 142.741 90.8274L143.773 88.84C143.891 88.6144 143.912 88.464 143.73 88.464C143.483 88.464 142.903 88.8722 142.591 89.2482L141.914 91.0315C141.839 91.2142 141.764 91.2571 141.592 91.2571C141.313 91.2571 141.173 91.0745 141.302 90.7844L141.989 89.259ZM141.291 88.5714C141.409 88.1632 141.345 87.7979 141.033 87.7979C140.645 87.7979 140.523 88.0545 140.147 88.8487L140.12 88.9044V88.4318C140.12 88.0987 140.013 87.7979 139.712 87.7979C139.357 87.7979 139.035 88.3458 138.788 88.8937H138.949C139.121 88.6466 139.282 88.4962 139.411 88.4962C139.562 88.4962 139.648 88.7326 139.411 89.2482L138.724 90.7737C138.595 91.0638 138.734 91.2464 139.014 91.2464C139.186 91.2464 139.261 91.2034 139.336 91.0208L140.013 89.2375C140.206 89.0011 140.378 88.797 140.593 88.5714H141.291ZM137.896 88.8722C138.004 88.4532 137.8 88.2706 137.563 88.2706C137.306 88.2706 136.983 88.6466 136.811 89.1623L137.896 88.8722ZM138.165 90.0324H137.95C137.682 90.3547 137.381 90.6126 137.091 90.6126C136.79 90.6126 136.64 90.4299 136.64 90.0324C136.64 89.8713 136.661 89.6994 136.693 89.549L138.444 88.9689C138.788 88.1524 138.38 87.7979 137.896 87.7979C137.069 87.7979 136.124 89.2482 136.124 90.4084C136.124 90.9563 136.382 91.2571 136.79 91.2571C137.263 91.2464 137.757 90.7844 138.165 90.0324ZM134.727 88.2921H134.147V88.0235L134.867 87.9268L135.469 87.0137H135.802L135.479 87.9268H136.328L136.221 88.2921H135.35L134.502 90.6663C134.888 90.6018 135.404 90.2366 135.64 89.9035H135.802C135.501 90.6985 134.717 91.2571 134.061 91.2571C133.836 91.2571 133.717 91.0423 133.803 90.8274L134.727 88.2921ZM131.075 90.258C131.075 89.4738 131.945 88.421 132.428 88.421C132.536 88.421 132.643 88.4317 132.729 88.464L132.224 89.8176C131.934 90.1721 131.483 90.6018 131.268 90.6018C131.15 90.6018 131.075 90.4944 131.075 90.258ZM133.47 87.6368L133.739 87.6583L132.804 89.8068C132.579 90.3225 132.675 90.5588 132.804 90.5588C132.933 90.5588 133.094 90.4084 133.266 90.1614H133.427C133.18 90.7092 132.858 91.2571 132.504 91.2571C132.203 91.2571 132.02 90.9348 132.074 90.3547L132.095 90.1506L132.037 90.2323C131.652 90.7703 131.304 91.2571 130.946 91.2571C130.634 91.2571 130.473 91.0638 130.473 90.7737C130.473 89.5275 131.837 87.9376 133.116 87.9376H133.17L133.47 87.6368ZM131.01 88.5714C131.128 88.1632 131.064 87.7979 130.752 87.7979C130.364 87.7979 130.242 88.0545 129.866 88.8487L129.839 88.9044V88.4318C129.839 88.0987 129.732 87.7979 129.431 87.7979C129.077 87.7979 128.754 88.3458 128.507 88.8937H128.668C128.84 88.6466 129.001 88.4962 129.12 88.4962C129.27 88.4962 129.356 88.7326 129.12 89.2482L128.432 90.7844C128.303 91.0745 128.443 91.2571 128.722 91.2571C128.894 91.2571 128.969 91.2142 129.044 91.0315L129.721 89.2482C129.914 89.0119 130.086 88.8078 130.301 88.5822H131.01V88.5714ZM126.584 90.9348L126.52 91.1282H124.017L124.081 90.9241C124.855 90.7844 124.984 90.72 125.306 89.8498L126.004 87.9805C126.316 87.1104 126.251 87.0459 125.574 86.9063L125.639 86.7129H128.894L128.701 87.7549H128.464C128.464 87.1319 128.4 86.9707 127.809 86.9707H127.658C127.078 86.9707 127.003 87.0567 126.842 87.5079L126.38 88.7648H127.057C127.508 88.7648 127.68 88.4855 127.884 88.1202H128.12L127.562 89.6457H127.325C127.379 89.1838 127.379 89.0011 126.96 89.0011H126.283L125.972 89.8606C125.635 90.7551 125.731 90.7733 126.533 90.9252C126.55 90.9283 126.567 90.9316 126.584 90.9348Z" fill="black"/>
<path fill-rule="evenodd" clip-rule="evenodd" d="M128.711 78.2797L127.712 78.9995V79.0102H127.454L128.045 78.1508H128.711V78.2797ZM135.694 83.3181L137.295 79.064L137.241 78.9995L136.135 79.1284V79.2573L136.349 79.4185C136.533 79.5612 136.484 79.6942 136.332 80.1109L136.306 80.1812L135.082 83.4471C134.985 83.6404 135.114 83.8768 135.34 83.8768C135.845 83.8768 136.382 83.4148 136.629 82.781H136.468C136.296 83.0173 135.952 83.2752 135.694 83.3181ZM143.032 80.0416L144.031 79.1284V78.9995H143.365L142.774 80.0416H143.032ZM143.096 82.6521H143.311C142.913 83.4148 142.419 83.8768 141.946 83.8768C141.538 83.8768 141.28 83.576 141.28 83.0281C141.28 81.8679 142.226 80.4176 143.053 80.4176C143.526 80.4176 143.945 80.7721 143.601 81.5885L141.839 82.1687C141.807 82.3191 141.785 82.4909 141.785 82.6521C141.785 83.0496 141.936 83.2322 142.237 83.2322C142.527 83.2322 142.827 82.9744 143.096 82.6521ZM143.042 81.4919C143.15 81.0836 142.946 80.901 142.709 80.901C142.462 80.901 142.14 81.277 141.957 81.7819L143.042 81.4919ZM139.884 80.9225H139.304V80.6539L140.024 80.5572L140.625 79.6441H140.958L140.636 80.5572H141.485L141.377 80.9225H140.507L139.658 83.2967C140.045 83.2322 140.561 82.8669 140.797 82.5339H140.958C140.657 83.3289 139.873 83.8875 139.218 83.8875C138.992 83.8875 138.874 83.6727 138.96 83.4578L139.884 80.9225ZM138.702 80.7936C138.767 80.5572 138.616 80.4283 138.487 80.4283C137.982 80.4283 137.381 80.8903 137.134 81.5241H137.295C137.456 81.2877 137.735 81.0299 138.004 80.9869L137.037 83.5115C136.951 83.7479 137.123 83.8768 137.241 83.8768C137.725 83.8768 138.283 83.4148 138.53 82.781H138.369C138.208 83.0173 137.929 83.2752 137.66 83.3181L138.702 80.7936ZM139.196 79.397C139.196 79.6119 139.014 79.7945 138.799 79.7945C138.584 79.7945 138.401 79.6119 138.401 79.397C138.401 79.1821 138.573 78.9995 138.799 78.9995C139.014 78.9995 139.196 79.1821 139.196 79.397ZM133.771 81.0514C133.288 81.0514 132.418 82.1042 132.418 82.8884C132.418 83.1248 132.493 83.2322 132.622 83.2322C132.826 83.2322 133.277 82.8025 133.567 82.448L134.072 81.0944C133.975 81.0621 133.879 81.0514 133.771 81.0514ZM135.082 80.2887L134.813 80.2672L134.512 80.568H134.459C133.18 80.568 131.816 82.1579 131.816 83.4041C131.816 83.6941 131.977 83.8875 132.289 83.8875C132.647 83.8875 132.995 83.4007 133.38 82.8627L133.438 82.781L133.417 82.9851C133.363 83.5652 133.546 83.8875 133.846 83.8875C134.201 83.8875 134.523 83.3396 134.77 82.7917H134.609C134.437 83.0388 134.276 83.1892 134.147 83.1892C134.018 83.1892 133.922 82.9529 134.147 82.4372L135.082 80.2887ZM129.667 83.7693C129.205 83.952 128.883 84.1668 128.883 84.4999C128.883 84.8114 129.173 84.9403 129.775 84.9403C130.581 84.9403 131.021 84.704 131.021 84.3924C131.021 84.2528 130.838 84.1883 130.355 84.0272C130.043 83.9305 129.818 83.8445 129.667 83.7693ZM130.205 82.448C129.99 82.448 129.914 82.2653 129.914 82.072C129.914 81.4489 130.215 80.6754 130.699 80.6754C130.914 80.6754 130.989 80.858 130.989 81.0514C130.978 81.6852 130.677 82.448 130.205 82.448ZM130.613 83.4578C131.204 83.6404 131.569 83.7801 131.569 84.1883C131.569 84.7147 130.602 85.3378 129.431 85.3271C128.754 85.3271 128.174 85.1444 128.174 84.704C128.174 84.285 128.561 83.9412 129.506 83.6619C129.377 83.576 129.324 83.4685 129.324 83.3181C129.324 83.0603 129.56 82.8562 129.968 82.6628C129.571 82.6091 129.313 82.3083 129.313 81.8679C129.313 81.1911 129.872 80.4176 130.752 80.4176C130.935 80.4176 131.096 80.4605 131.225 80.5465H132.192L132.085 80.9117H131.515C131.547 81.0084 131.569 81.1159 131.569 81.234C131.569 81.8893 131.042 82.6413 130.205 82.6843C129.99 82.8025 129.882 82.9636 129.882 83.0925C129.882 83.2442 130.058 83.2955 130.446 83.4089L130.446 83.4089C130.498 83.424 130.553 83.4401 130.613 83.4578ZM127.207 81.6208C127.626 81.6208 127.637 81.8034 127.573 82.2653H127.809L128.368 80.7399H128.131C127.927 81.1051 127.755 81.3844 127.304 81.3844H126.38L126.831 80.1275C126.992 79.6763 127.068 79.5904 127.648 79.5904H128.056C128.647 79.5904 128.711 79.7515 128.711 80.3746H128.948L129.141 79.3325H125.639L125.574 79.5259C126.251 79.6656 126.316 79.73 126.004 80.6002L125.306 82.4802C124.984 83.3504 124.855 83.4148 124.07 83.5545L124.017 83.7586H127.906L128.604 82.6521H128.335C127.884 83.0925 127.433 83.5008 126.552 83.5008C125.583 83.5008 125.6 83.4534 125.891 82.6547L125.891 82.6547C125.91 82.6033 125.93 82.5487 125.95 82.4909L126.273 81.6315H127.207V81.6208Z" fill="black"/>
<path fill-rule="evenodd" clip-rule="evenodd" d="M130.419 72.4141C130.634 72.4141 130.817 72.2315 130.817 72.0166C130.817 71.8018 130.634 71.6192 130.419 71.6192C130.194 71.6192 130.022 71.8018 130.022 72.0166C130.022 72.2422 130.194 72.4141 130.419 72.4141ZM133.599 73.7677C133.599 73.2521 133.47 73.0587 133.105 73.0587C132.654 73.0587 132.235 73.5421 131.816 74.1222L132.718 71.7051L132.665 71.6299L131.558 71.7588V71.8877L131.773 72.0489C131.96 72.1944 131.906 72.3399 131.746 72.7674L131.73 72.8116L130.752 75.3684C130.666 75.5833 130.57 75.8411 130.57 75.9056C130.57 76.2064 130.978 76.4964 131.354 76.4964C132.192 76.5072 133.599 74.9602 133.599 73.7677ZM142.913 72.672L143.912 71.7588V71.6299H143.246L142.656 72.672H142.913ZM142.978 75.2825H143.193C142.784 76.0452 142.29 76.5072 141.818 76.4964C141.409 76.4964 141.152 76.2064 141.152 75.6585C141.152 74.4982 142.097 73.048 142.924 73.048C143.397 73.048 143.816 73.4025 143.472 74.2189L141.721 74.799C141.689 74.9494 141.667 75.1213 141.667 75.2825C141.667 75.68 141.818 75.8626 142.118 75.8626C142.408 75.8626 142.709 75.6048 142.978 75.2825ZM142.924 74.1222C143.032 73.714 142.827 73.5314 142.591 73.5314C142.333 73.5314 142.011 73.9074 141.839 74.4123L142.924 74.1222ZM139.755 73.5529H139.175V73.2843L139.895 73.1876L140.496 72.2745H140.829L140.507 73.1876H141.356L141.248 73.5529H140.378L139.529 75.927C139.916 75.8626 140.432 75.4973 140.668 75.1643H140.829C140.528 75.9593 139.744 76.5179 139.089 76.5179C138.863 76.5179 138.745 76.303 138.831 76.0882L139.755 73.5529ZM138.874 73.8322C138.992 73.424 138.928 73.0587 138.616 73.0587C138.228 73.0587 138.106 73.3153 137.73 74.1095L137.703 74.1652V73.6925C137.703 73.3595 137.596 73.0587 137.295 73.0587C136.94 73.0587 136.618 73.6066 136.371 74.1545H136.532C136.704 73.9074 136.865 73.757 136.983 73.757C137.134 73.757 137.22 73.9933 136.983 74.509L136.296 76.0345C136.167 76.3245 136.306 76.5072 136.586 76.5072C136.758 76.5072 136.833 76.4642 136.908 76.2816L137.585 74.4982C137.778 74.2619 137.95 74.0578 138.165 73.8322H138.874ZM135.469 74.1222C135.576 73.714 135.372 73.5314 135.136 73.5314C134.878 73.5314 134.566 73.9074 134.384 74.4123L135.469 74.1222ZM135.737 75.2825H135.522C135.254 75.6048 134.953 75.8626 134.663 75.8626C134.362 75.8626 134.212 75.68 134.212 75.2825C134.212 75.1213 134.233 74.9494 134.265 74.799L136.016 74.2189C136.36 73.4025 135.952 73.048 135.469 73.048C134.641 73.048 133.696 74.4982 133.696 75.6585C133.696 76.2064 133.954 76.4964 134.362 76.4964C134.835 76.5072 135.329 76.0452 135.737 75.2825ZM131.225 75.6907C131.225 75.8304 131.472 75.9915 131.644 75.9915C132.342 75.9915 132.998 74.7346 132.987 74.0363C132.987 73.8 132.869 73.7033 132.708 73.7033C132.45 73.7033 131.977 74.09 131.676 74.4553L131.397 75.2073C131.3 75.4544 131.225 75.6477 131.225 75.6907ZM130.097 73.0587C130.226 73.0587 130.376 73.1876 130.312 73.424L129.281 75.9485C129.549 75.9056 129.829 75.6477 129.99 75.4114H130.151C129.904 76.0452 129.345 76.5072 128.862 76.5072C128.733 76.5072 128.561 76.3782 128.647 76.1419L129.614 73.6173C129.345 73.6603 129.066 73.9181 128.905 74.1545H128.744C128.991 73.5206 129.592 73.0587 130.097 73.0587ZM125.639 71.9414H127.949L127.884 72.1456C127.1 72.2852 126.971 72.3497 126.649 73.2198L125.961 75.1106C125.628 76.013 125.714 76.1204 126.305 76.1204C127.035 76.1204 127.514 75.5898 127.932 75.1265C127.963 75.0921 127.993 75.0581 128.024 75.0246H128.292L127.53 76.3783H124.017L124.081 76.1849C124.855 76.0452 124.984 75.9808 125.306 75.1106L126.004 73.2091C126.316 72.3389 126.251 72.2745 125.574 72.1348L125.639 71.9414Z" fill="black"/>
<path fill-rule="evenodd" clip-rule="evenodd" d="M167.649 26.7498L166.435 25.2995H164.866L166.252 26.7498H167.649ZM153.638 35.1292C155.024 35.1292 156.12 34.2805 156.141 32.8625C156.141 31.3699 154.997 30.871 154.032 30.4508C153.331 30.1451 152.725 29.8811 152.725 29.3066C152.725 28.8554 153.08 28.5116 153.617 28.5116C154.186 28.5116 154.68 28.8876 155.121 29.457L156.238 28.4471C155.594 27.6844 154.734 27.1795 153.606 27.1795C152.167 27.1795 151.178 28.1678 151.178 29.3603C151.178 30.8254 152.309 31.3229 153.27 31.7454C153.979 32.057 154.594 32.3278 154.594 32.9162C154.594 33.4533 154.229 33.7756 153.628 33.7756C153.015 33.7756 152.414 33.4318 151.962 32.8517L150.856 33.8723C151.522 34.6673 152.371 35.1292 153.638 35.1292ZM126.649 29.5214V34.9143H125.123V27.3943H127.025L128.862 30.5527L130.699 27.3943H132.6V34.9143H131.075V29.5214L129.399 32.336H128.325L126.649 29.5214ZM136.377 27.3943V34.9143H134.852V27.3943H136.377ZM140.165 34.9143V29.4784L143.527 34.9143H145.483V27.3943H143.957V32.8302L140.595 27.3943H138.639V34.9143H140.165ZM149.27 27.3943V34.9143H147.745V27.3943H149.27ZM160.918 28.7802V34.9143H159.392V28.7802H157.072V27.3943H163.238V28.7802H160.918ZM169.121 33.6467V34.9143H164.738V27.3943H169.121V28.662H166.263V30.4453H168.691V31.713H166.263V33.6467H169.121ZM172.575 34.9143V31.8741H173.36L175.368 34.9143H177.163L174.81 31.584C175.583 31.2295 176.024 30.5527 176.024 29.6396C176.024 28.243 175.003 27.3943 173.349 27.3943H171.05V34.9143H172.575ZM172.575 30.6064H173.435C174.079 30.6064 174.455 30.2304 174.455 29.6181C174.455 29.0487 174.079 28.662 173.435 28.662H172.575V30.6064ZM182.669 34.9143V33.6467H179.812V31.713H182.239V30.4453H179.812V28.662H182.669V27.3943H178.286V34.9143H182.669ZM132.074 41.8972C132.074 43.9276 130.462 45.6572 128.077 45.6572H125.123V38.1372H128.077C130.462 38.1372 132.074 39.8668 132.074 41.8972ZM128.099 44.2714H126.649V39.523H128.099C129.496 39.523 130.505 40.5543 130.505 41.8972C130.505 43.2293 129.496 44.2714 128.099 44.2714ZM139.665 42.7137C139.665 44.6904 138.504 45.8721 136.614 45.8721C134.734 45.8721 133.573 44.6904 133.573 42.7137V38.1372H135.099V42.8426C135.099 43.8524 135.668 44.4433 136.624 44.4433C137.559 44.4433 138.139 43.8524 138.139 42.8426V38.1372H139.665V42.7137ZM147.734 45.6572V39.523H150.055V38.1372H143.888V39.523H146.209V45.6572H147.734ZM153.08 42.617V45.6572H151.554V38.1372H153.853C155.508 38.1372 156.528 38.9859 156.528 40.3825C156.528 41.2956 156.088 41.9724 155.314 42.3269L157.667 45.6572H155.873L153.864 42.617H153.08ZM153.939 41.3493H153.08V39.4049H153.939C154.584 39.4049 154.96 39.7916 154.96 40.361C154.96 40.9733 154.584 41.3493 153.939 41.3493ZM160.509 43.702L159.79 45.6572H158.167L161.014 38.1372H163.012L165.859 45.6572H164.237L163.517 43.702H160.509ZM163.045 42.4021H160.982L162.013 39.5767L163.045 42.4021ZM171.634 38.1372H173.257L170.41 45.6572H168.412L165.565 38.1372H167.187L169.411 44.0136L171.634 38.1372ZM174.584 45.6572L175.304 43.702H178.312L179.032 45.6572H180.654L177.807 38.1372H175.809L172.962 45.6572H174.584ZM176.808 39.5767L175.777 42.4021H177.839L176.808 39.5767ZM183.496 38.1372H181.971V45.6572H183.496V38.1372ZM190.142 44.2714V45.6572H185.759V38.1372H187.284V44.2714H190.142ZM192.565 47.3761L193.811 44.164H192.275L191.297 47.3761H192.565ZM132.074 52.6401C132.074 54.6705 130.462 56.4001 128.077 56.4001H125.123V48.8801H128.077C130.462 48.8801 132.074 50.6097 132.074 52.6401ZM128.099 55.0143H126.649V50.2659H128.099C129.496 50.2659 130.505 51.2972 130.505 52.6401C130.505 53.9722 129.496 55.0143 128.099 55.0143ZM138.085 55.1324V56.4001H133.702V48.8801H138.085V50.1477H135.228V51.931H137.656V53.1987H135.228V55.1324H138.085ZM147.347 56.4001V55.0143H144.49V48.8801H142.964V56.4001H147.347ZM149.287 48.8801L149.126 51.974H147.934L147.762 48.8801H149.287ZM155.514 56.4001V55.1324H152.656V53.1987H155.084V51.931H152.656V50.1477H155.514V48.8801H151.131V56.4001H155.514ZM158.969 51.0072V56.4001H157.443V48.8801H159.345L161.182 52.0385L163.019 48.8801H164.92V56.4001H163.395V51.0072L161.719 53.8218H160.644L158.969 51.0072ZM168.697 56.4001V53.3599H169.653C171.308 53.3599 172.318 52.5112 172.318 51.1253C172.318 49.7288 171.308 48.8801 169.653 48.8801H167.172V56.4001H168.697ZM168.697 52.0922H169.718C170.362 52.0922 170.749 51.7162 170.749 51.1038C170.749 50.5345 170.362 50.1477 169.718 50.1477H168.697V52.0922ZM178.114 56.4001V55.0143H175.257V48.8801H173.731V56.4001H178.114ZM186.683 52.6401C186.683 54.7887 185.06 56.6149 182.697 56.6149C180.323 56.6149 178.701 54.7887 178.701 52.6401C178.701 50.4915 180.323 48.6652 182.697 48.6652C185.06 48.6652 186.683 50.4915 186.683 52.6401ZM182.697 55.1861C181.279 55.1861 180.269 54.0796 180.269 52.6401C180.269 51.2005 181.279 50.094 182.697 50.094C184.104 50.094 185.114 51.2005 185.114 52.6401C185.114 54.0796 184.104 55.1861 182.697 55.1861ZM188.3 48.8801H189.826V56.4001H188.3V48.8801ZM129.506 67.143V65.8753H126.649V63.9416H129.077V62.6739H126.649V60.8906H129.506V59.6229H125.123V67.143H129.506ZM134.669 61.0088V67.143H133.144V61.0088H130.823V59.6229H136.99V61.0088H134.669ZM144.393 67.143C146.778 67.143 148.39 65.4134 148.39 63.383C148.39 61.3525 146.778 59.6229 144.393 59.6229H141.439V67.143H144.393ZM142.964 65.7571H144.415C145.811 65.7571 146.821 64.7151 146.821 63.383C146.821 62.0401 145.811 61.0088 144.415 61.0088H142.964V65.7571ZM154.401 67.143V65.8753H151.543V63.9416H153.971V62.6739H151.543V60.8906H154.401V59.6229H150.018V67.143H154.401ZM163.663 65.7571V67.143H159.28V59.6229H160.806V65.7571H163.663ZM165.442 62.7169L165.603 59.6229H164.078L164.25 62.7169H165.442ZM167.447 59.6229H168.972V67.143H167.447V59.6229ZM172.76 67.143V61.7071L176.122 67.143H178.077V59.6229H176.552V65.0588L173.189 59.6229H171.234V67.143H172.76ZM184.948 65.0911C184.927 66.5091 183.831 67.3578 182.445 67.3578C181.178 67.3578 180.329 66.8959 179.663 66.1009L180.769 65.0803C181.221 65.6604 181.822 66.0042 182.435 66.0042C183.036 66.0042 183.401 65.6819 183.401 65.1448C183.401 64.5564 182.786 64.2856 182.077 63.974C181.117 63.5515 179.985 63.054 179.985 61.5889C179.985 60.3964 180.974 59.4081 182.413 59.4081C183.541 59.4081 184.401 59.913 185.045 60.6757L183.928 61.6856C183.487 61.1162 182.993 60.7402 182.424 60.7402C181.887 60.7402 181.532 61.084 181.532 61.5352C181.532 62.1097 182.138 62.3737 182.839 62.6794C183.804 63.0996 184.948 63.5985 184.948 65.0911ZM191.089 67.143V65.8753H188.231V63.9416H190.659V62.6739H188.231V60.8906H191.089V59.6229H186.706V67.143H191.089ZM194.544 64.1027V67.143H193.018V59.6229H195.317C196.972 59.6229 197.992 60.4716 197.992 61.8682C197.992 62.7814 197.552 63.4582 196.778 63.8127L199.131 67.143H197.337L195.328 64.1027H194.544ZM195.403 62.8351H194.544V60.8906H195.403C196.048 60.8906 196.424 61.2773 196.424 61.8467C196.424 62.4591 196.048 62.8351 195.403 62.8351ZM202.994 61.0088V67.143H201.468V61.0088H199.148V59.6229H205.314V61.0088H202.994ZM208.339 59.6229H206.814V67.143H208.339V59.6229ZM217.939 63.3829C217.939 65.5315 216.317 67.3578 213.953 67.3578C211.579 67.3578 209.957 65.5315 209.957 63.3829C209.957 61.2344 211.579 59.4081 213.953 59.4081C216.317 59.4081 217.939 61.2344 217.939 63.3829ZM213.953 65.929C212.535 65.929 211.525 64.8225 211.525 63.3829C211.525 61.9434 212.535 60.8369 213.953 60.8369C215.361 60.8369 216.37 61.9434 216.37 63.3829C216.37 64.8225 215.361 65.929 213.953 65.929ZM221.082 61.7071V67.143H219.557V59.6229H221.512L224.874 65.0588V59.6229H226.4V67.143H224.445L221.082 61.7071Z" fill="#1E1E1E"/>
<rect x="124.017" y="10.7429" width="29.5429" height="10.7429" fill="white"/>
<path fill-rule="evenodd" clip-rule="evenodd" d="M136.272 20.2227C136.387 20.1075 136.502 19.9854 136.617 19.8598H136.613C136.829 19.6156 137.038 19.3818 137.288 19.169C137.365 19.0992 137.438 19.0399 137.508 18.991C137.518 18.9808 137.523 18.9655 137.528 18.9506C137.533 18.935 137.539 18.9197 137.549 18.9108C137.5 18.9297 137.46 18.9595 137.42 18.9895L137.42 18.9895L137.42 18.9895L137.42 18.9895C137.379 19.0205 137.338 19.0518 137.285 19.0713C137.264 19.0713 137.243 19.0504 137.264 19.0294C137.337 18.9771 137.41 18.9213 137.48 18.8654H137.466C137.445 18.8654 137.445 18.8445 137.445 18.8236C137.186 18.7826 136.987 18.9592 136.809 19.1172L136.798 19.1271C136.77 19.141 136.744 19.1272 136.723 19.1164C136.713 19.1109 136.704 19.1062 136.697 19.1062C136.539 19.1589 136.403 19.256 136.267 19.3537C136.141 19.4437 136.014 19.5343 135.869 19.5912V19.5493C135.819 19.5662 135.771 19.5883 135.722 19.6105C135.65 19.643 135.578 19.6757 135.503 19.6923C135.367 19.7239 135.241 19.7198 135.118 19.7159L135.118 19.7159H135.118H135.118C135.078 19.7146 135.038 19.7133 134.999 19.7133C134.776 19.7353 134.556 19.7829 134.336 19.8304L134.336 19.8304L134.264 19.8459C134.261 19.8476 134.257 19.8485 134.254 19.8494L134.254 19.8494L134.254 19.8494C134.251 19.8502 134.247 19.8511 134.244 19.8528C134.111 19.8877 133.99 19.9366 133.868 20.0064L133.854 20.0133C133.849 20.0197 133.844 20.0254 133.84 20.0306L133.84 20.0307C133.835 20.0369 133.83 20.0426 133.826 20.0482C133.784 20.0971 133.746 20.1389 133.687 20.1704C133.599 20.2141 133.524 20.2817 133.45 20.3482L133.45 20.3482L133.45 20.3482L133.45 20.3482L133.45 20.3482L133.45 20.3482L133.45 20.3482L133.45 20.3483L133.45 20.3483C133.417 20.3771 133.385 20.4057 133.353 20.432C133.346 20.439 133.332 20.4425 133.321 20.4425L133.321 20.4425C133.214 20.5472 133.106 20.6519 132.994 20.753C132.987 20.76 132.956 20.7635 132.932 20.76C132.932 20.76 132.935 20.76 132.935 20.7565L132.946 20.7356L132.998 20.6518C133.008 20.6361 133.018 20.6204 133.027 20.6047C133.037 20.589 133.047 20.5733 133.057 20.5576L133.057 20.5576C133.085 20.5158 133.113 20.4739 133.144 20.4355C133.151 20.4251 133.151 20.4146 133.144 20.4076C133.137 20.4006 133.127 20.3971 133.116 20.3971C133.217 20.2994 133.335 20.2157 133.457 20.1424V20.139C133.443 20.1424 133.422 20.132 133.433 20.118C133.443 20.1052 133.451 20.0905 133.459 20.0767L133.468 20.0622L133.469 20.0595C133.47 20.0573 133.47 20.0554 133.471 20.0535C133.472 20.0509 133.473 20.0482 133.475 20.0447C133.473 20.0413 133.47 20.0386 133.468 20.036C133.465 20.0334 133.462 20.0308 133.461 20.0273L133.44 20.0412C133.414 20.0576 133.388 20.0746 133.367 20.0936C133.351 20.1068 133.337 20.1249 133.322 20.1434C133.29 20.1837 133.257 20.2262 133.207 20.2262C133.203 20.2262 133.186 20.2262 133.175 20.2227C133.165 20.2227 133.158 20.2192 133.154 20.2157V20.2157C133.154 20.215 133.154 20.2144 133.154 20.214C133.154 20.2137 133.154 20.2134 133.155 20.2132L133.155 20.2127L133.156 20.2123L133.158 20.2122C133.158 20.2122 133.161 20.2087 133.161 20.2052C133.161 20.2052 133.161 20.2018 133.165 20.2018C133.167 20.1983 133.168 20.1956 133.17 20.193C133.172 20.1904 133.174 20.1878 133.175 20.1843C133.177 20.1808 133.179 20.1782 133.181 20.1756L133.181 20.1756C133.182 20.173 133.184 20.1703 133.186 20.1669C133.187 20.166 133.187 20.1649 133.188 20.1637L133.189 20.1599L133.189 20.1599C133.19 20.1573 133.191 20.1546 133.193 20.1529L133.197 20.1457C133.2 20.1396 133.204 20.1323 133.207 20.125C133.208 20.1215 133.21 20.1189 133.212 20.1163L133.214 20.1124L133.217 20.1075C133.222 20.1006 133.227 20.0927 133.231 20.0849L133.231 20.0849C133.235 20.077 133.24 20.0692 133.245 20.0622C133.248 20.0552 133.252 20.0482 133.259 20.0413C133.262 20.0343 133.266 20.0282 133.269 20.0221C133.273 20.016 133.276 20.0099 133.28 20.0029C133.29 19.9854 133.28 19.9715 133.266 19.968C133.304 19.9191 133.349 19.8773 133.405 19.8459H133.398C133.446 19.8217 133.496 19.7934 133.545 19.7653L133.545 19.7653L133.545 19.7653C133.574 19.7488 133.603 19.7323 133.631 19.7168C133.642 19.7063 133.652 19.6958 133.666 19.6889C133.551 19.7272 133.447 19.7796 133.346 19.8494C133.346 19.8494 133.318 19.8598 133.311 19.8668C133.311 19.8668 133.29 19.8738 133.262 19.8494C133.259 19.8459 133.259 19.8424 133.259 19.8354C133.271 19.8111 133.296 19.7951 133.323 19.7777L133.323 19.7777L133.323 19.7777C133.342 19.7651 133.363 19.7518 133.381 19.7342C133.401 19.7342 133.419 19.7342 133.419 19.7552C133.82 19.4419 134.314 19.3694 134.81 19.2967C135.115 19.252 135.42 19.2072 135.705 19.1062C135.735 19.0852 135.765 19.0652 135.796 19.0451C135.826 19.0251 135.856 19.005 135.886 18.9841C135.937 18.963 135.982 18.9269 136.03 18.8888L136.03 18.8887L136.03 18.8887C136.078 18.851 136.128 18.8112 136.189 18.7817C136.349 18.6596 136.471 18.52 136.533 18.3142C136.533 18.2932 136.512 18.2723 136.512 18.2723C136.248 18.5549 135.945 18.7782 135.622 18.9422C135.313 19.1045 134.982 19.1286 134.655 19.1524C134.532 19.1613 134.41 19.1702 134.289 19.1864C134.31 19.1446 134.351 19.1446 134.39 19.1446C134.39 19.095 134.414 19.0737 134.444 19.0464C134.452 19.039 134.461 19.0313 134.47 19.0224H134.529C134.539 19.0224 134.545 19.012 134.55 19.0015C134.555 18.991 134.56 18.9806 134.571 18.9806C134.612 18.9806 134.672 18.9596 134.651 18.9596C134.619 18.9187 134.572 18.9349 134.521 18.9528C134.472 18.97 134.418 18.9887 134.369 18.9596C134.387 18.9395 134.393 18.9154 134.398 18.8934C134.403 18.8696 134.408 18.8484 134.428 18.8375H134.508C134.508 18.7957 134.55 18.7573 134.55 18.7573C134.731 18.6485 134.907 18.5535 135.079 18.4603C135.193 18.398 135.307 18.3366 135.42 18.2723C135.397 18.2723 135.377 18.2816 135.357 18.2907C135.326 18.3052 135.296 18.3189 135.26 18.2932C135.281 18.2932 135.281 18.2784 135.281 18.2636C135.281 18.2487 135.281 18.2339 135.301 18.2339C135.432 18.1991 135.548 18.1428 135.667 18.0852L135.667 18.0852C135.751 18.0446 135.836 18.0034 135.928 17.9687C135.9 17.9687 135.875 17.9761 135.85 17.9832C135.803 17.997 135.758 18.0101 135.705 17.9687C135.719 17.9618 135.73 17.953 135.741 17.9442L135.741 17.9442C135.763 17.9266 135.785 17.9094 135.827 17.9094V17.8501C135.827 17.8292 135.848 17.8292 135.869 17.8292C135.848 17.8292 135.827 17.8082 135.827 17.8082C135.838 17.7861 135.86 17.7815 135.884 17.7764C135.905 17.7719 135.929 17.767 135.949 17.7489C135.928 17.7489 135.889 17.7489 135.889 17.728C135.949 17.6477 136.05 17.6268 136.15 17.6059C136.14 17.5849 136.12 17.5849 136.103 17.5849C136.085 17.5849 136.07 17.5849 136.07 17.564C136.07 17.5431 136.091 17.5431 136.112 17.5431H136.07C136.038 17.5266 136.043 17.4973 136.047 17.477C136.049 17.4715 136.05 17.4666 136.05 17.4628C136.131 17.3668 136.158 17.2535 136.185 17.1408L136.185 17.1408C136.198 17.0856 136.211 17.0306 136.23 16.9778C136.21 16.9778 136.189 16.9778 136.189 16.9569C135.993 17.1734 135.683 17.2554 135.388 17.3334L135.361 17.3407H135.26C135.159 17.3826 135.016 17.3826 134.915 17.3198C134.867 17.2947 134.833 17.2633 134.796 17.2294C134.771 17.2068 134.745 17.183 134.713 17.1593C134.55 17.0581 134.39 16.9778 134.209 16.915C133.704 16.7545 133.179 16.6708 132.653 16.6917C132.8 16.6113 132.956 16.5793 133.114 16.5469C133.195 16.5301 133.278 16.5132 133.36 16.4894C133.411 16.4742 133.463 16.4585 133.514 16.443C133.802 16.3548 134.082 16.2692 134.39 16.287C134.349 16.2728 134.298 16.2779 134.25 16.2826C134.228 16.2849 134.207 16.287 134.188 16.287C133.955 16.2697 133.72 16.3214 133.475 16.3752C133.423 16.3866 133.371 16.3981 133.318 16.4091C133.222 16.429 133.131 16.4577 133.039 16.4863C132.938 16.5179 132.838 16.5495 132.73 16.5696C132.683 16.5857 132.646 16.613 132.609 16.6396C132.55 16.6824 132.494 16.7234 132.406 16.7127V16.6499C132.608 16.4056 132.852 16.1649 133.175 16.144C133.488 16.0932 133.783 16.1293 134.091 16.1671L134.091 16.1671C134.142 16.1734 134.194 16.1798 134.247 16.1858C134.499 16.2061 134.735 16.2621 134.99 16.3226L135.016 16.3289C135.072 16.3289 135.103 16.3777 135.133 16.425C135.158 16.4635 135.182 16.5009 135.218 16.5103C135.267 16.5273 135.317 16.5305 135.367 16.5337C135.439 16.5383 135.511 16.543 135.583 16.5906C135.583 16.5765 135.581 16.5628 135.579 16.5492L135.579 16.5492C135.574 16.5225 135.569 16.4962 135.583 16.4684C135.628 16.4234 135.68 16.4355 135.73 16.4474C135.77 16.4567 135.809 16.4659 135.844 16.4475C135.955 16.3792 135.851 16.2744 135.747 16.1695C135.698 16.119 135.648 16.0684 135.622 16.0218C135.622 16.0009 135.642 15.98 135.642 15.98C135.688 16.0208 135.731 16.0631 135.773 16.105C135.879 16.2098 135.982 16.3124 136.126 16.3847C136.227 16.4266 136.471 16.4859 136.429 16.3638C136.357 16.2056 136.235 16.0684 136.112 15.93C136.061 15.873 136.01 15.8157 135.963 15.7567V15.6764C135.931 15.6764 135.923 15.6643 135.914 15.6494C135.911 15.6446 135.908 15.6396 135.903 15.6345V15.5543C135.852 15.5276 135.841 15.4853 135.829 15.4428C135.823 15.4186 135.816 15.3944 135.802 15.3729C135.768 15.3165 135.765 15.2472 135.763 15.1757C135.76 15.1189 135.758 15.0606 135.74 15.0065C135.698 14.8844 135.681 14.7832 135.66 14.6611C135.637 14.5362 135.612 14.4167 135.588 14.2997L135.588 14.2997C135.545 14.0933 135.503 13.8948 135.479 13.6876C135.447 13.3916 135.597 13.1412 135.75 12.8853C135.795 12.8094 135.841 12.7331 135.883 12.6549C136.025 12.4106 136.185 12.1699 136.45 12.0059C136.507 11.7677 136.664 11.5693 136.821 11.3719L136.832 11.3569C136.987 11.1654 137.244 11.0483 137.434 10.962L137.455 10.9522C137.737 10.8266 137.991 10.7464 137.995 10.7464H124.017V21.4892H133.934C134.199 21.2976 134.463 21.1766 134.776 21.0327L134.776 21.0327C134.92 20.967 135.073 20.8965 135.242 20.8123C135.278 20.7944 135.321 20.7735 135.368 20.7504L135.368 20.7504L135.368 20.7504L135.368 20.7503C135.651 20.6114 136.102 20.3901 136.272 20.2227ZM133.161 18.7712C133.151 18.7712 133.139 18.7725 133.126 18.7738C133.086 18.7777 133.045 18.7819 133.06 18.7503C133.075 18.6795 133.148 18.6582 133.219 18.6375C133.249 18.6286 133.279 18.6198 133.304 18.6072C133.31 18.6041 133.317 18.6006 133.324 18.5969C133.363 18.5761 133.411 18.5505 133.447 18.5654C133.471 18.5994 133.5 18.6082 133.529 18.6167C133.551 18.623 133.572 18.6292 133.589 18.6456C133.514 18.7211 133.426 18.7285 133.337 18.7361C133.278 18.7411 133.218 18.7462 133.161 18.7712ZM130.047 18.2828C130.047 18.3037 130.068 18.3246 130.068 18.3246C130.555 17.7768 130.997 17.3093 131.623 16.922C131.64 16.915 131.634 16.9238 131.626 16.9354C131.613 16.9527 131.596 16.9764 131.644 16.9639C131.852 16.9168 131.945 16.7397 132.035 16.5674C132.059 16.5228 132.082 16.4786 132.107 16.437C132.202 16.283 132.337 16.1843 132.473 16.0848C132.571 16.0131 132.67 15.9409 132.754 15.8474C132.754 15.8683 132.754 15.8893 132.733 15.9102C132.754 15.9311 132.775 15.9311 132.796 15.9311C132.833 15.9035 132.873 15.8921 132.911 15.8811C132.96 15.8672 133.006 15.854 133.04 15.809C132.88 15.7462 132.674 15.7253 132.514 15.7881C132.09 15.9904 131.728 16.3149 131.383 16.6813C131.174 16.9011 130.959 17.1069 130.694 17.25C130.513 17.6129 130.311 17.9373 130.047 18.2828ZM131.745 16.9848C131.734 17.0067 131.723 17.0181 131.713 17.029C131.703 17.0389 131.694 17.0484 131.686 17.0651C131.665 17.1069 131.644 17.1244 131.606 17.1453C131.585 17.1453 131.564 17.1453 131.564 17.1244C131.585 17.0441 131.644 16.9639 131.724 16.943C131.745 16.9464 131.745 16.9674 131.745 16.9848ZM132.636 20.0831C132.653 20.0657 132.674 20.0447 132.685 20.0238C132.702 19.9819 132.594 19.9924 132.577 20.0029C132.561 20.0155 132.551 20.0282 132.539 20.0435L132.535 20.0482C132.521 20.0649 132.504 20.0803 132.486 20.0959L132.486 20.0959L132.486 20.0959C132.475 20.1065 132.463 20.1172 132.452 20.1285C132.403 20.1773 132.354 20.2262 132.302 20.2715C132.267 20.3029 132.378 20.3169 132.403 20.296C132.431 20.275 132.455 20.2506 132.479 20.2262C132.489 20.2262 132.498 20.2246 132.504 20.2236L132.504 20.2236L132.508 20.223L132.511 20.2227C132.568 20.2034 132.611 20.1634 132.653 20.1245L132.664 20.1145C132.678 20.1006 132.66 20.0866 132.636 20.0831ZM132.323 19.8563C132.321 19.8563 132.32 19.8563 132.32 19.8568C132.319 19.8572 132.319 19.8581 132.319 19.8598C132.298 19.8744 132.277 19.8892 132.256 19.904L132.256 19.9041L132.256 19.9041C132.201 19.9425 132.147 19.9806 132.09 20.0133C132.034 20.0443 131.978 20.0711 131.921 20.0981L131.921 20.0981L131.921 20.0981L131.921 20.0982L131.921 20.0982C131.888 20.1137 131.855 20.1294 131.822 20.1459C131.822 20.1459 131.822 20.1424 131.818 20.1424C131.811 20.132 131.797 20.1285 131.783 20.1355C131.707 20.1773 131.641 20.2332 131.582 20.2925C131.571 20.2994 131.561 20.3099 131.554 20.3204L131.526 20.3483L131.522 20.3518V20.3553L131.522 20.3553C131.509 20.3692 131.495 20.3832 131.477 20.4041C131.474 20.4077 131.471 20.4114 131.468 20.4149C131.463 20.4214 131.458 20.4275 131.449 20.432C131.435 20.439 131.401 20.439 131.404 20.4181V20.4146C131.394 20.4216 131.38 20.4285 131.369 20.432C131.366 20.434 131.363 20.4357 131.361 20.4372C131.358 20.4385 131.356 20.4396 131.354 20.4408C131.348 20.4434 131.343 20.446 131.338 20.4495C131.335 20.446 131.328 20.446 131.324 20.446C131.321 20.446 131.314 20.446 131.31 20.4495C131.302 20.4565 131.294 20.463 131.286 20.4696C131.27 20.4828 131.253 20.496 131.237 20.5123C131.195 20.5507 131.157 20.5925 131.119 20.6379C131.119 20.6379 131.119 20.6414 131.115 20.6414C131.115 20.6431 131.114 20.644 131.114 20.6449C131.113 20.6457 131.112 20.6466 131.112 20.6484L131.105 20.6553C131.104 20.6567 131.103 20.658 131.102 20.6591C131.101 20.661 131.1 20.6623 131.098 20.6623L131.094 20.6658C131.091 20.6728 131.087 20.6798 131.08 20.6867C131.077 20.6902 131.07 20.6937 131.063 20.6937C131.06 20.6902 131.056 20.6867 131.056 20.6832C131.054 20.6815 131.054 20.6798 131.053 20.678C131.052 20.6763 131.051 20.6745 131.049 20.6728C131.046 20.6675 131.043 20.6623 131.04 20.6571L131.04 20.6571C131.038 20.6518 131.035 20.6466 131.032 20.6414V20.6379C131.032 20.6361 131.031 20.6344 131.03 20.6327C131.029 20.6309 131.028 20.6292 131.028 20.6274L131.091 20.5541L131.094 20.5507C131.098 20.5472 131.101 20.5428 131.105 20.5384C131.108 20.5341 131.112 20.5297 131.115 20.5262C131.121 20.5193 131.127 20.5123 131.133 20.5053C131.139 20.4983 131.145 20.4913 131.15 20.4844C131.152 20.4809 131.154 20.4783 131.155 20.4756C131.157 20.473 131.159 20.4704 131.161 20.4669L131.161 20.4669C131.181 20.439 131.202 20.4111 131.223 20.3797V20.3762C131.227 20.3727 131.23 20.3692 131.23 20.3623C131.241 20.3483 131.251 20.3343 131.258 20.3204L131.279 20.2785V20.275L131.282 20.2715C131.282 20.2698 131.283 20.2689 131.284 20.268C131.285 20.2676 131.285 20.2671 131.285 20.2665C131.286 20.266 131.286 20.2653 131.286 20.2646C131.289 20.2558 131.293 20.248 131.296 20.2401C131.3 20.2323 131.303 20.2244 131.307 20.2157V20.2122L131.31 20.1983C131.312 20.1948 131.313 20.1913 131.314 20.1878C131.315 20.1843 131.315 20.1808 131.317 20.1773V20.1738C131.319 20.1686 131.32 20.1634 131.321 20.1581C131.321 20.1529 131.322 20.1477 131.324 20.1424C131.324 20.139 131.324 20.132 131.321 20.1285C131.341 20.0901 131.369 20.0552 131.401 20.0203L131.399 20.0206C131.398 20.0209 131.397 20.0215 131.395 20.0221C131.394 20.0229 131.392 20.0238 131.39 20.0238C131.375 20.0335 131.361 20.0465 131.348 20.0596C131.337 20.0702 131.326 20.0808 131.314 20.0901C131.293 20.1075 131.251 20.0796 131.279 20.0587C131.296 20.0447 131.31 20.0308 131.324 20.0168C131.324 20.0168 131.324 20.0133 131.328 20.0133C131.341 20.0008 131.355 19.9866 131.368 19.9724L131.368 19.9723L131.368 19.9723L131.368 19.9723C131.388 19.9508 131.409 19.9289 131.432 19.9122C131.456 19.8947 131.474 19.8808 131.495 19.8633C131.498 19.8598 131.502 19.8563 131.505 19.8563C131.519 19.8389 131.533 19.8214 131.55 19.804C131.55 19.804 131.554 19.804 131.554 19.8005C131.673 19.685 131.841 19.6442 132.013 19.6026L132.013 19.6026C132.121 19.5764 132.23 19.5498 132.33 19.5039C132.386 19.4806 132.449 19.4898 132.511 19.4989C132.56 19.5061 132.609 19.5132 132.653 19.5039C132.712 19.5039 132.775 19.5039 132.834 19.5458C132.697 19.6188 132.565 19.7024 132.435 19.785L132.435 19.785L132.435 19.7851L132.435 19.7854C132.397 19.8092 132.36 19.8329 132.323 19.8563ZM132.755 18.4346C132.738 18.4365 132.728 18.4377 132.737 18.4467C132.796 18.5061 132.918 18.4851 133.001 18.4398C133.06 18.3979 133.123 18.3979 133.203 18.3979C133.224 18.3979 133.224 18.3595 133.224 18.3386C133.283 18.3595 133.325 18.3595 133.384 18.3595C133.868 18.2583 134.334 18.1572 134.779 17.9339C134.329 17.5867 133.773 17.4321 133.229 17.2806C133.139 17.2555 133.049 17.2305 132.96 17.2046C132.979 17.2046 132.999 17.2111 133.018 17.2177C133.058 17.2309 133.099 17.2443 133.141 17.2046C133.085 17.1607 133.024 17.1523 132.963 17.144C132.913 17.1371 132.863 17.1303 132.817 17.1035C132.822 17.1035 132.827 17.1045 132.833 17.1057C132.854 17.1097 132.881 17.1148 132.897 17.0825C132.791 17.0295 132.686 17.0115 132.579 16.9934C132.524 16.984 132.469 16.9746 132.413 16.9604C132.514 16.9395 132.577 16.8592 132.577 16.758C132.577 16.7371 132.535 16.7371 132.514 16.7371C132.274 16.8592 132.111 17.0825 132.01 17.3442C132.101 17.3976 132.199 17.3914 132.295 17.3853C132.349 17.3819 132.403 17.3785 132.455 17.3861C132.409 17.4293 132.343 17.441 132.28 17.4523L132.28 17.4523C132.256 17.4565 132.233 17.4606 132.211 17.4663C132.149 17.4803 132.09 17.5256 132.111 17.5675C132.124 17.5849 132.138 17.5919 132.156 17.5954C132.111 17.6094 132.069 17.6303 132.03 17.6687C132.088 17.7136 132.147 17.705 132.205 17.6964C132.228 17.693 132.251 17.6896 132.274 17.6896C132.274 17.715 132.291 17.7236 132.308 17.7325C132.317 17.7371 132.326 17.7418 132.333 17.7489C132.232 17.7873 132.152 17.871 132.131 17.9304C132.106 17.9908 132.06 18.0301 132.015 18.069C131.984 18.0953 131.953 18.1214 131.93 18.1537V18.2165C131.862 18.2759 131.793 18.3289 131.725 18.3812L131.725 18.3812C131.585 18.4887 131.449 18.5931 131.341 18.7433C131.362 18.7433 131.362 18.7643 131.362 18.7852C131.343 18.8141 131.316 18.8342 131.29 18.8532C131.259 18.8755 131.231 18.8963 131.22 18.9282C131.22 18.9492 131.22 18.9701 131.241 18.9701C131.368 18.928 131.479 18.8572 131.587 18.7878C131.685 18.7247 131.782 18.6629 131.888 18.6247C131.974 18.6039 132.05 18.5648 132.123 18.5266C132.186 18.4942 132.247 18.4625 132.312 18.4433C132.363 18.4328 132.418 18.418 132.474 18.4031L132.474 18.4031L132.474 18.4031L132.474 18.4031C132.53 18.3883 132.585 18.3735 132.636 18.363C132.636 18.3839 132.636 18.4049 132.657 18.4049H132.817C132.807 18.4286 132.776 18.4322 132.755 18.4346ZM133.589 20.1939C133.593 20.1939 133.597 20.1886 133.597 20.1886C133.625 20.1675 133.654 20.1411 133.679 20.1093C133.675 20.1093 133.672 20.1093 133.668 20.1041C133.643 20.1305 133.614 20.1622 133.589 20.1939ZM137.554 18.8625L137.491 18.9164C137.527 18.9074 137.554 18.8984 137.554 18.8625Z" fill="#000091"/>
<path d="M153.532 10.7429H142.021C142.021 10.7429 142.042 10.7464 142.129 10.7918C142.223 10.8407 142.344 10.907 142.417 10.9454C142.567 11.0223 142.71 11.1201 142.804 11.2702C142.845 11.3296 142.905 11.4518 142.866 11.5322C142.825 11.6335 142.804 11.7976 142.703 11.836C142.581 11.8989 142.421 11.8989 142.278 11.8779C142.198 11.8779 142.118 11.857 142.035 11.836C142.337 11.9583 142.623 12.1014 142.825 12.3843C142.845 12.4262 142.925 12.4437 143.006 12.4437C143.026 12.4437 143.026 12.4856 143.026 12.5031C142.985 12.545 142.946 12.5659 142.967 12.6253H143.026C143.127 12.5834 143.106 12.3808 143.249 12.4437C143.35 12.5031 143.392 12.6463 143.329 12.7476C143.249 12.8279 143.169 12.8907 143.086 12.9501C143.065 12.992 143.065 13.0514 143.086 13.0933C143.145 13.1736 143.166 13.254 143.186 13.3378C143.249 13.481 143.267 13.6416 143.329 13.7848C143.409 14.0887 143.489 14.3925 143.472 14.6999C143.472 14.8605 143.392 15.0037 143.451 15.1678C143.493 15.3285 143.594 15.4507 143.674 15.5939C143.754 15.7162 143.834 15.7965 143.896 15.9187C144.018 16.1213 144.241 16.3239 144.14 16.5683C144.081 16.7115 143.858 16.6906 143.715 16.7709C143.594 16.8722 143.695 17.0363 143.757 17.1376C143.858 17.3192 143.635 17.4415 143.493 17.5043C143.534 17.5672 143.614 17.5462 143.635 17.5846C143.656 17.6859 143.757 17.7453 143.695 17.8501C143.614 17.9723 143.371 18.0317 143.493 18.2168C143.573 18.36 143.521 18.5171 143.472 18.6638C143.413 18.8454 143.249 18.9258 143.106 18.9677C142.985 19.0096 142.842 19.0096 142.724 18.9886C142.682 18.9677 142.644 18.9467 142.602 18.9467C142.257 18.9048 141.913 18.807 141.572 18.807C141.471 18.828 141.37 18.8454 141.29 18.8873C141.2 18.9537 141.116 19.027 141.046 19.1039C141.046 19.1039 141.046 19.1039 141.043 19.1074C141.029 19.1248 141.012 19.1388 140.998 19.1563C140.991 19.1667 140.98 19.1772 140.973 19.1877C140.966 19.1947 140.963 19.2017 140.956 19.2086C140.897 19.282 140.845 19.3623 140.796 19.4426C140.792 19.4496 140.789 19.4531 140.785 19.4566C140.782 19.4671 140.775 19.4741 140.768 19.4846C140.702 19.6068 140.653 19.7325 140.615 19.8582C140.476 20.3227 140.538 20.7209 140.636 20.8187C140.664 20.8466 141.304 21.0457 141.749 21.2448C141.958 21.3391 142.104 21.4089 142.226 21.4857H153.528V10.7429H153.532Z" fill="#E1000F"/>
<path d="M142.706 14.6576C142.786 14.6785 142.908 14.6785 142.908 14.7202C142.866 14.8801 142.626 14.9218 142.504 15.0852H142.442C142.383 15.1269 142.4 15.2278 142.341 15.2278C142.282 15.2069 142.219 15.2278 142.16 15.2486C142.24 15.3286 142.341 15.3912 142.463 15.3703C142.484 15.3703 142.522 15.412 142.522 15.4503C142.522 15.4503 142.543 15.4503 142.564 15.4294C142.584 15.4294 142.605 15.4294 142.605 15.4503V15.5302C142.546 15.6102 142.442 15.572 142.362 15.5893C142.525 15.6311 142.685 15.6311 142.828 15.5893C142.95 15.5476 142.828 15.346 142.908 15.2451C142.866 15.2451 142.908 15.1826 142.866 15.1826C142.908 15.1408 142.946 15.0817 142.988 15.0609C143.03 15.0609 143.089 15.04 143.11 14.9983C143.11 14.9566 143.03 14.9392 143.047 14.8975C143.169 14.8175 143.27 14.6958 143.228 14.5742C143.207 14.5116 143.047 14.5116 142.946 14.4733C142.845 14.4351 142.724 14.4733 142.602 14.4942C142.501 14.4942 142.4 14.5568 142.299 14.5742C142.156 14.6159 142.035 14.6958 141.916 14.7758C142.059 14.7167 142.198 14.6958 142.362 14.6541C142.484 14.6576 142.584 14.6298 142.706 14.6576" fill="#808080"/>
<path d="M317.8 53.5C317.556 53.2253 317.427 52.8672 317.44 52.5V41.71C317.421 41.3136 317.566 40.9269 317.84 40.64C318.471 40.0931 319.409 40.0931 320.04 40.64C320.314 40.9269 320.459 41.3136 320.44 41.71V51.5H325.37C326.31 51.5 326.78 51.91 326.78 52.73C326.78 53.54 326.31 53.94 325.37 53.94H318.84C318.448 53.9399 318.073 53.7812 317.8 53.5Z" fill="#FFAD1D"/>
<path fill-rule="evenodd" clip-rule="evenodd" d="M336.4 52.19C336.413 51.907 336.328 51.6282 336.16 51.4C336.02 51.2032 335.792 51.0875 335.55 51.09C335.396 51.0947 335.244 51.1251 335.1 51.18C335.062 51.1941 335.024 51.2083 334.984 51.2227C334.856 51.2694 334.72 51.3188 334.59 51.38C334.263 51.5201 333.929 51.6436 333.59 51.75C333.265 51.8427 332.928 51.8865 332.59 51.88C332.012 51.9167 331.44 51.7347 330.99 51.37C330.571 50.9199 330.326 50.3347 330.3 49.72H335.73C335.943 49.7322 336.151 49.652 336.3 49.5C336.443 49.3185 336.514 49.0907 336.5 48.86C336.507 48.0053 336.309 47.1614 335.92 46.4C335.587 45.7257 335.062 45.1654 334.41 44.79C333.722 44.3998 332.941 44.2029 332.15 44.22C331.306 44.2079 330.474 44.4219 329.74 44.84C329.036 45.2567 328.465 45.8632 328.09 46.59C327.678 47.3792 327.471 48.2598 327.49 49.15C327.463 50.0562 327.677 50.9533 328.11 51.75C328.511 52.4844 329.124 53.0804 329.87 53.46C330.701 53.8754 331.621 54.0814 332.55 54.06C333.636 54.0321 334.702 53.7622 335.67 53.27C335.885 53.1539 336.069 52.9896 336.21 52.79C336.336 52.6157 336.403 52.4052 336.4 52.19ZM330.3 48.28C330.317 47.716 330.529 47.1753 330.9 46.75C331.244 46.3933 331.725 46.2005 332.22 46.22C332.703 46.1922 333.173 46.3831 333.5 46.74C333.837 47.1825 334.02 47.7236 334.02 48.28H330.3Z" fill="#FFAD1D"/>
<path fill-rule="evenodd" clip-rule="evenodd" d="M353.09 46.6C352.769 45.8849 352.252 45.2749 351.6 44.84C350.94 44.4132 350.166 44.197 349.38 44.22C348.765 44.2111 348.158 44.3518 347.61 44.63C347.102 44.8896 346.679 45.2885 346.39 45.78V45.62C346.413 45.2476 346.274 44.8834 346.01 44.62C345.737 44.3714 345.379 44.2387 345.01 44.25C344.642 44.2418 344.284 44.3741 344.01 44.62C343.743 44.8823 343.601 45.2463 343.62 45.62V56.1C343.593 56.479 343.745 56.8487 344.03 57.1C344.337 57.3498 344.725 57.478 345.12 57.46C345.484 57.4735 345.84 57.3525 346.12 57.12C346.375 56.8797 346.514 56.5404 346.5 56.19V52.55C346.779 53.0426 347.196 53.4424 347.7 53.7C348.24 53.9682 348.837 54.1052 349.44 54.1C350.206 54.1159 350.961 53.9073 351.61 53.5C352.261 53.0705 352.774 52.4631 353.09 51.75C353.457 50.944 353.638 50.0656 353.62 49.18C353.637 48.2914 353.456 47.4101 353.09 46.6ZM350.73 49.16C350.781 49.8715 350.583 50.5786 350.17 51.16C349.778 51.6205 349.194 51.872 348.59 51.84C347.982 51.8719 347.395 51.6119 347.01 51.14C346.602 50.5562 346.404 49.8509 346.45 49.14C346.409 48.4296 346.606 47.7259 347.01 47.14C347.398 46.672 347.983 46.4129 348.59 46.44C349.203 46.4079 349.792 46.6766 350.17 47.16C350.568 47.7487 350.764 48.4504 350.73 49.16Z" fill="#FFAD1D"/>
<path fill-rule="evenodd" clip-rule="evenodd" d="M355.2 41.25C355.177 41.6549 355.339 42.0483 355.64 42.32V42.27C356.355 42.8134 357.345 42.8134 358.06 42.27C358.364 41.9993 358.529 41.6062 358.51 41.2C358.51 40.8156 358.342 40.4505 358.05 40.2C357.711 39.927 357.284 39.7882 356.85 39.81C356.414 39.7866 355.984 39.9215 355.64 40.19C355.339 40.4578 355.177 40.8481 355.2 41.25ZM355.39 52.67C355.371 53.0478 355.521 53.4144 355.8 53.67C356.087 53.899 356.443 54.0226 356.81 54.02C357.174 54.0244 357.528 53.9005 357.81 53.67C358.096 53.4188 358.251 53.0501 358.23 52.67V45.67C358.251 45.2899 358.096 44.9212 357.81 44.67C357.527 44.4423 357.173 44.3219 356.81 44.33C356.448 44.3261 356.095 44.446 355.81 44.67C355.524 44.9212 355.369 45.2899 355.39 45.67V52.67Z" fill="#FFAD1D"/>
<path d="M360.94 53.67C360.661 53.4144 360.511 53.0478 360.53 52.67V41.67C360.511 41.2922 360.661 40.9256 360.94 40.67C361.224 40.4432 361.577 40.3197 361.94 40.32C362.304 40.3156 362.658 40.4395 362.94 40.67C363.226 40.9212 363.381 41.2899 363.36 41.67V52.67C363.381 53.0501 363.226 53.4188 362.94 53.67C362.658 53.9005 362.304 54.0244 361.94 54.02C361.577 54.0203 361.224 53.8968 360.94 53.67V53.67Z" fill="#FFAD1D"/>
<path fill-rule="evenodd" clip-rule="evenodd" d="M365.82 51.79C366.227 52.5199 366.839 53.1145 367.58 53.5C368.393 53.9179 369.296 54.1275 370.21 54.11C371.127 54.1262 372.033 53.9168 372.85 53.5C373.599 53.0957 374.208 52.4755 374.6 51.72C375.427 50.0783 375.427 48.1417 374.6 46.5C374.189 45.7941 373.581 45.224 372.85 44.86C372.03 44.4547 371.125 44.2524 370.21 44.27C369.298 44.2508 368.396 44.4533 367.58 44.86C366.837 45.2426 366.224 45.8379 365.82 46.57C365.007 48.215 365.007 50.145 365.82 51.79ZM371.78 47.18C372.183 47.7658 372.377 48.4704 372.33 49.18V49.13C372.33 50.94 371.62 51.93 370.21 51.93C368.8 51.93 368.1 51.03 368.1 49.22C368.1 47.41 368.8 46.5 370.21 46.5C370.812 46.4649 371.394 46.7172 371.78 47.18Z" fill="#FFAD1D"/>
<path d="M383 52.19C383.201 52.4171 383.296 52.7188 383.262 53.0201C383.227 53.3213 383.067 53.5939 382.82 53.77C382.432 53.9807 381.987 54.0614 381.55 54H381.01C378.77 53.82 377.65 52.6467 377.65 50.48V46.62H376.87C376.513 46.6553 376.156 46.5553 375.87 46.34C375.651 46.1376 375.533 45.8479 375.55 45.55C375.524 45.2419 375.642 44.9392 375.87 44.73C376.156 44.5147 376.513 44.4147 376.87 44.45H377.65V42.95C377.634 42.5767 377.775 42.2137 378.04 41.95C378.337 41.6971 378.72 41.5682 379.11 41.59C379.497 41.5687 379.876 41.6977 380.17 41.95C380.428 42.2174 380.565 42.5788 380.55 42.95V44.5H381.9C382.77 44.5 383.21 44.86 383.21 45.6C383.224 45.8995 383.103 46.1895 382.88 46.39C382.593 46.6036 382.236 46.7033 381.88 46.67H380.53V50.67C380.506 50.9838 380.603 51.2948 380.8 51.54C381.008 51.754 381.292 51.8763 381.59 51.88H382.13C382.448 51.8734 382.758 51.9837 383 52.19V52.19Z" fill="#FFAD1D"/>
<path fill-rule="evenodd" clip-rule="evenodd" d="M392.68 48.32C392.773 47.1977 392.413 46.0848 391.68 45.23C390.834 44.5047 389.73 44.1514 388.62 44.25C387.974 44.2517 387.331 44.3221 386.7 44.46C386.128 44.5726 385.576 44.768 385.06 45.04C384.84 45.1476 384.648 45.3051 384.5 45.5C384.38 45.6675 384.307 45.8645 384.29 46.07C384.273 46.3521 384.362 46.6304 384.54 46.85C384.704 47.05 384.952 47.1611 385.21 47.15C385.472 47.1359 385.728 47.0642 385.96 46.94C386.721 46.6209 387.528 46.4251 388.35 46.36C388.778 46.28 389.218 46.4163 389.526 46.7242C389.834 47.0321 389.97 47.472 389.89 47.9V48.25H389.39C388.31 48.2247 387.231 48.3152 386.17 48.52C385.527 48.6265 384.933 48.9305 384.47 49.39C384.096 49.8482 383.907 50.4296 383.94 51.02C383.934 51.5667 384.09 52.1028 384.39 52.56C384.699 53.0251 385.127 53.3982 385.63 53.64C386.171 53.9058 386.767 54.0395 387.37 54.03C387.924 54.042 388.471 53.9001 388.95 53.62C389.403 53.3735 389.756 52.9777 389.95 52.5V52.65C389.925 53.0209 390.059 53.3849 390.32 53.65C390.589 53.906 390.949 54.0429 391.32 54.03C391.688 54.045 392.046 53.9158 392.32 53.67C392.573 53.4005 392.703 53.0387 392.68 52.67V48.32ZM389.91 50.02C389.935 50.5621 389.749 51.0929 389.39 51.5C389.035 51.8756 388.536 52.0797 388.02 52.06C387.692 52.0702 387.372 51.9518 387.13 51.73C386.89 51.5016 386.759 51.1813 386.77 50.85C386.748 50.4407 387.008 50.0691 387.4 49.95C388.107 49.7432 388.844 49.6586 389.58 49.7H389.91V50.02Z" fill="#FFAD1D"/>
<path fill-rule="evenodd" clip-rule="evenodd" d="M404.5 45.63C404.519 45.2563 404.377 44.8923 404.11 44.63C403.825 44.3682 403.447 44.2314 403.06 44.25C402.679 44.2315 402.304 44.3564 402.01 44.6C401.736 44.8577 401.593 45.225 401.62 45.6V45.8C401.328 45.3071 400.901 44.908 400.39 44.65C399.838 44.3729 399.228 44.2323 398.61 44.24C397.052 44.2059 395.615 45.0801 394.93 46.48C394.218 48.0531 394.218 49.8569 394.93 51.43C395.263 52.1111 395.784 52.6833 396.43 53.08C397.09 53.4674 397.845 53.6647 398.61 53.65C399.239 53.6595 399.86 53.5153 400.42 53.23C400.934 52.975 401.359 52.5707 401.64 52.07V53.07C401.688 53.6959 401.47 54.313 401.04 54.77C400.522 55.1807 399.869 55.3808 399.21 55.33C398.832 55.331 398.456 55.2839 398.09 55.19C397.707 55.0881 397.329 54.9646 396.96 54.82L396.36 54.62C396.198 54.5679 396.03 54.5409 395.86 54.54C395.617 54.5336 395.386 54.6454 395.24 54.84C395.081 55.0721 395.001 55.3489 395.01 55.63C395.01 55.8541 395.076 56.0732 395.2 56.26C395.341 56.4564 395.526 56.6173 395.74 56.73C396.84 57.2809 398.061 57.5457 399.29 57.5C400.682 57.6057 402.065 57.2004 403.18 56.36C404.109 55.4539 404.592 54.1845 404.5 52.89V45.63ZM401.62 48.93C401.663 49.5895 401.46 50.2416 401.05 50.76C400.647 51.2085 400.062 51.451 399.46 51.42C398.854 51.4541 398.266 51.2113 397.86 50.76C397.447 50.2425 397.241 49.5907 397.28 48.93C397.244 48.2697 397.45 47.6188 397.86 47.1C398.264 46.645 398.853 46.3984 399.46 46.43C400.064 46.4015 400.649 46.6478 401.05 47.1C401.457 47.6202 401.659 48.2709 401.62 48.93Z" fill="#FFAD1D"/>
<path fill-rule="evenodd" clip-rule="evenodd" d="M415.19 52.19C415.203 51.907 415.118 51.6282 414.95 51.4C414.802 51.1957 414.562 51.0792 414.31 51.09C414.159 51.0946 414.01 51.1251 413.87 51.18C413.7 51.24 413.53 51.3 413.35 51.38C412.97 51.53 412.64 51.66 412.35 51.75C412.025 51.8419 411.688 51.8857 411.35 51.88C410.771 51.9198 410.199 51.7374 409.75 51.37C409.331 50.9199 409.086 50.3347 409.06 49.72H414.45C414.663 49.7322 414.871 49.652 415.02 49.5C415.163 49.3185 415.234 49.0907 415.22 48.86C415.24 48.0086 415.055 47.1648 414.68 46.4C414.344 45.7278 413.819 45.1682 413.17 44.79C412.478 44.3995 411.694 44.2026 410.9 44.22C410.059 44.2077 409.23 44.4218 408.5 44.84C407.804 45.2604 407.24 45.8665 406.87 46.59C406.461 47.3801 406.258 48.2606 406.28 49.15C406.255 50.0549 406.465 50.9507 406.89 51.75C407.294 52.4821 407.907 53.0774 408.65 53.46C409.485 53.8755 410.408 54.0814 411.34 54.06C411.88 54.0497 412.417 53.9759 412.94 53.84C413.466 53.7071 413.976 53.5159 414.46 53.27C414.675 53.1539 414.859 52.9896 415 52.79C415.126 52.6157 415.193 52.4052 415.19 52.19ZM409.09 48.28C409.108 47.718 409.316 47.1788 409.68 46.75C410.029 46.3939 410.512 46.2015 411.01 46.22C411.493 46.1907 411.964 46.3819 412.29 46.74C412.624 47.1838 412.803 47.7247 412.8 48.28H409.09Z" fill="#FFAD1D"/>
<path fill-rule="evenodd" clip-rule="evenodd" d="M324.81 61.16C324.814 61.0025 324.752 60.8505 324.64 60.74L324.67 60.73C324.415 60.5089 324.035 60.5089 323.78 60.73C323.669 60.8446 323.611 61.0006 323.62 61.16V65.16C323.406 64.7079 323.057 64.3338 322.62 64.09C322.167 63.8302 321.652 63.6988 321.13 63.71C320.53 63.6999 319.94 63.8631 319.43 64.18C318.931 64.501 318.535 64.9593 318.29 65.5C318.005 66.1274 317.865 66.811 317.88 67.5C317.867 68.1887 318.007 68.8717 318.29 69.5C318.525 70.051 318.91 70.5255 319.4 70.87C319.906 71.197 320.498 71.3642 321.1 71.35C321.622 71.3612 322.137 71.2298 322.59 70.97C323.029 70.729 323.379 70.3541 323.59 69.9V70.71C323.579 70.8726 323.637 71.0323 323.75 71.15C323.865 71.2675 324.026 71.3295 324.19 71.32C324.357 71.3274 324.52 71.2659 324.64 71.15C324.755 71.0333 324.817 70.8739 324.81 70.71V61.16ZM323.59 67.5C323.65 68.2496 323.444 68.9963 323.01 69.61C322.605 70.0913 321.998 70.3543 321.37 70.32C320.73 70.3535 320.113 70.0784 319.71 69.58C319.277 68.976 319.066 68.2416 319.11 67.5C319.07 66.7837 319.282 66.0761 319.71 65.5C320.117 65.0091 320.734 64.7417 321.37 64.78C322 64.7481 322.607 65.0149 323.01 65.5C323.423 66.0823 323.627 66.787 323.59 67.5Z" fill="#000638"/>
<path fill-rule="evenodd" clip-rule="evenodd" d="M333.13 70.02C333.135 69.8955 333.092 69.774 333.01 69.68C332.94 69.5915 332.833 69.5399 332.72 69.54C332.53 69.5811 332.35 69.6593 332.19 69.77C331.9 69.9339 331.6 70.0776 331.29 70.2C330.968 70.3096 330.63 70.3637 330.29 70.36C328.75 70.36 327.93 69.49 327.84 67.77H332.66C332.803 67.7846 332.945 67.7372 333.05 67.64C333.139 67.5115 333.182 67.3561 333.17 67.2C333.219 66.2839 332.919 65.3832 332.33 64.68C331.751 64.0446 330.919 63.7001 330.06 63.74C329.43 63.7285 328.81 63.8949 328.27 64.22C327.74 64.5445 327.314 65.0126 327.04 65.57C326.741 66.1934 326.593 66.8787 326.61 67.57C326.554 68.5938 326.914 69.5968 327.61 70.35C328.326 71.0402 329.297 71.4023 330.29 71.35C330.685 71.3446 331.078 71.2909 331.46 71.19C331.865 71.0866 332.252 70.9249 332.61 70.71C332.96 70.5 333.13 70.28 333.13 70.02ZM327.87 66.99C327.897 66.3607 328.141 65.7601 328.56 65.29C328.963 64.8773 329.524 64.6586 330.1 64.69C330.653 64.6606 331.191 64.8764 331.57 65.28C331.947 65.7688 332.145 66.3726 332.13 66.99H327.87Z" fill="#000638"/>
<path d="M340.76 71.01C340.474 70.7588 340.319 70.3901 340.34 70.01V59.01C340.319 58.6299 340.474 58.2612 340.76 58.01C341.372 57.5449 342.218 57.5449 342.83 58.01C343.116 58.2612 343.271 58.6299 343.25 59.01V70.01C343.271 70.3901 343.116 70.7588 342.83 71.01C342.218 71.4751 341.372 71.4751 340.76 71.01V71.01Z" fill="#000638"/>
<path d="M348.04 58.12C348.376 58.5791 348.539 59.1423 348.5 59.71C348.504 61.0237 347.982 62.2843 347.05 63.21C346.915 63.3787 346.716 63.4837 346.5 63.5C346.289 63.5028 346.085 63.424 345.93 63.28C345.77 63.1511 345.678 62.9557 345.68 62.75C345.682 62.5623 345.758 62.3829 345.89 62.25C346.283 61.8436 346.574 61.3502 346.74 60.81C346.337 60.788 345.958 60.6127 345.68 60.32C345.406 60.0322 345.259 59.6471 345.27 59.25C345.256 58.8093 345.418 58.3812 345.72 58.06C346.015 57.7529 346.424 57.5826 346.85 57.59C347.306 57.5777 347.744 57.7725 348.04 58.12V58.12Z" fill="#000638"/>
<path fill-rule="evenodd" clip-rule="evenodd" d="M350.3 58.59C350.277 58.9949 350.439 59.3883 350.74 59.66V59.63C351.463 60.1506 352.437 60.1506 353.16 59.63C353.463 59.3593 353.629 58.9662 353.61 58.56C353.625 58.1582 353.455 57.7717 353.15 57.51C352.811 57.237 352.384 57.0982 351.95 57.12C351.514 57.0966 351.084 57.2315 350.74 57.5C350.431 57.7744 350.268 58.1778 350.3 58.59ZM350.49 70.01C350.471 70.3878 350.621 70.7544 350.9 71.01C351.187 71.239 351.543 71.3626 351.91 71.36C352.274 71.3644 352.628 71.2405 352.91 71.01C353.196 70.7588 353.351 70.3901 353.33 70.01V63.01C353.351 62.6299 353.196 62.2612 352.91 62.01C352.627 61.7823 352.273 61.6619 351.91 61.67C351.548 61.6661 351.195 61.786 350.91 62.01C350.624 62.2612 350.469 62.6299 350.49 63.01V70.01Z" fill="#000638"/>
<path d="M364.08 62.55C364.697 63.4232 364.99 64.4839 364.91 65.55V70C364.932 70.3762 364.785 70.7425 364.51 71C364.22 71.2597 363.838 71.3929 363.45 71.37C363.061 71.3952 362.679 71.2617 362.39 71C362.122 70.7384 361.98 70.3739 362 70V65.68C362.037 65.1846 361.915 64.6904 361.65 64.27C361.368 63.9601 360.958 63.7977 360.54 63.83C359.993 63.8063 359.462 64.0173 359.08 64.41C358.706 64.833 358.512 65.3858 358.54 65.95V69.95C358.56 70.3239 358.418 70.6884 358.15 70.95C357.86 71.2097 357.478 71.3429 357.09 71.32C356.699 71.3412 356.315 71.2084 356.02 70.95C355.752 70.6884 355.61 70.3239 355.63 69.95V62.92C355.608 62.5418 355.759 62.174 356.04 61.92C356.341 61.6732 356.721 61.5451 357.11 61.56C357.477 61.5331 357.839 61.6599 358.11 61.91C358.363 62.1479 358.501 62.483 358.49 62.83V63.09C358.811 62.5908 359.26 62.1868 359.79 61.92C360.35 61.6451 360.967 61.5079 361.59 61.52C362.534 61.4643 363.451 61.8438 364.08 62.55V62.55Z" fill="#000638"/>
<path d="M368.89 70.8C368.172 70.4152 367.586 69.8228 367.21 69.1C366.802 68.3023 366.6 67.4156 366.62 66.52C366.603 65.6104 366.82 64.7117 367.25 63.91C367.655 63.1715 368.267 62.5669 369.01 62.17C369.818 61.7497 370.719 61.5399 371.63 61.56C372.154 61.5621 372.675 61.6327 373.18 61.77C373.671 61.8983 374.14 62.1006 374.57 62.37C374.956 62.5848 375.188 62.9987 375.17 63.44C375.182 63.7308 375.102 64.018 374.94 64.26C374.801 64.4649 374.568 64.5854 374.32 64.58C374.159 64.5801 374 64.5495 373.85 64.49C373.649 64.4145 373.452 64.3277 373.26 64.23C373.028 64.1053 372.788 63.9983 372.54 63.91C372.309 63.8262 372.065 63.7855 371.82 63.79C371.194 63.7451 370.583 63.9969 370.17 64.47C369.423 65.6987 369.423 67.2413 370.17 68.47C370.581 68.9468 371.192 69.2024 371.82 69.16C372.061 69.1663 372.301 69.1325 372.53 69.06C372.788 68.9651 373.039 68.8515 373.28 68.72L373.86 68.46C374.006 68.3995 374.162 68.3689 374.32 68.37C374.566 68.3684 374.797 68.4929 374.93 68.7C375.098 68.9432 375.182 69.2346 375.17 69.53C375.189 69.9689 374.956 70.3803 374.57 70.59C374.128 70.8557 373.65 71.0545 373.15 71.18C372.598 71.3244 372.03 71.3984 371.46 71.4C370.566 71.4199 369.682 71.2135 368.89 70.8Z" fill="#000638"/>
<path d="M377.01 71.01C376.728 70.7569 376.577 70.3885 376.6 70.01V59.01C376.577 58.6315 376.728 58.2631 377.01 58.01C377.294 57.7831 377.647 57.6597 378.01 57.66C378.374 57.6573 378.727 57.781 379.01 58.01C379.289 58.2656 379.439 58.6322 379.42 59.01V70.01C379.439 70.3878 379.289 70.7543 379.01 71.01C378.727 71.239 378.374 71.3627 378.01 71.36C377.647 71.3603 377.294 71.2368 377.01 71.01V71.01Z" fill="#000638"/>
<path d="M390.5 61.96C390.766 62.223 390.907 62.5865 390.89 62.96V70.03C390.916 70.409 390.765 70.7787 390.48 71.03C390.184 71.2856 389.801 71.418 389.41 71.4C389.043 71.4222 388.683 71.296 388.41 71.05C388.159 70.8118 388.024 70.4759 388.04 70.13V69.93C387.763 70.4022 387.362 70.7895 386.88 71.05C385.456 71.743 383.755 71.5016 382.58 70.44C381.934 69.5796 381.624 68.5126 381.71 67.44V62.96C381.692 62.5865 381.834 62.223 382.1 61.96C382.398 61.7089 382.781 61.5802 383.17 61.6C383.557 61.5787 383.936 61.7077 384.23 61.96C384.496 62.223 384.637 62.5865 384.62 62.96V67.5C384.582 67.9453 384.706 68.3893 384.97 68.75C385.257 69.0371 385.656 69.1834 386.06 69.15C386.58 69.1661 387.083 68.9586 387.44 68.58C387.804 68.1554 387.993 67.6087 387.97 67.05V62.96C387.949 62.5878 388.087 62.2241 388.35 61.96C388.644 61.7077 389.023 61.5787 389.41 61.6C389.806 61.575 390.197 61.704 390.5 61.96Z" fill="#000638"/>
<path d="M394.62 71.2C394.081 71.089 393.566 70.8824 393.1 70.59C392.91 70.4778 392.754 70.3151 392.65 70.12C392.552 69.9279 392.501 69.7155 392.5 69.5C392.489 69.2309 392.578 68.9673 392.75 68.76C392.899 68.5692 393.128 68.4584 393.37 68.46C393.541 68.4615 393.71 68.492 393.87 68.55C394.03 68.61 394.21 68.67 394.39 68.75C394.73 68.913 395.085 69.0436 395.45 69.14C395.868 69.2494 396.298 69.2999 396.73 69.29C397.092 69.3088 397.453 69.2366 397.78 69.08C398.006 68.9741 398.153 68.7497 398.16 68.5C398.166 68.3411 398.108 68.1865 398 68.07C397.821 67.9264 397.613 67.8239 397.39 67.77C397.09 67.68 396.63 67.57 395.98 67.44C395.089 67.3175 394.244 66.9736 393.52 66.44C393.008 65.9733 392.733 65.3016 392.77 64.61C392.766 64.0452 392.953 63.4956 393.3 63.05C393.68 62.5662 394.18 62.1904 394.75 61.96C395.41 61.692 396.118 61.5594 396.83 61.57C397.377 61.5696 397.921 61.6402 398.45 61.78C398.945 61.9063 399.417 62.1087 399.85 62.38C400.236 62.5948 400.468 63.0087 400.45 63.45C400.463 63.7285 400.374 64.0021 400.2 64.22C400.058 64.4155 399.831 64.5308 399.59 64.53C399.212 64.5087 398.846 64.388 398.53 64.18C398.246 64.0352 397.952 63.9116 397.65 63.81C397.348 63.7213 397.035 63.6775 396.72 63.68C396.388 63.6638 396.058 63.7436 395.77 63.91C395.549 64.0403 395.419 64.2821 395.432 64.5381C395.444 64.7941 395.598 65.022 395.83 65.13C396.33 65.3355 396.854 65.4767 397.39 65.55C398.079 65.6696 398.751 65.8746 399.39 66.16C399.822 66.3481 400.19 66.6572 400.45 67.05C400.684 67.4676 400.798 67.9417 400.78 68.42C400.799 69.2917 400.373 70.1132 399.65 70.6C398.761 71.1818 397.711 71.4655 396.65 71.41C395.968 71.4144 395.287 71.344 394.62 71.2Z" fill="#000638"/>
<path fill-rule="evenodd" clip-rule="evenodd" d="M402.26 58.59C402.241 58.9941 402.403 59.3858 402.7 59.66V59.63C403.427 60.1493 404.403 60.1493 405.13 59.63C405.427 59.3558 405.588 58.9641 405.57 58.56C405.583 58.1607 405.418 57.7762 405.12 57.51C404.781 57.237 404.354 57.0982 403.92 57.12C403.481 57.0969 403.048 57.2317 402.7 57.5C402.395 57.7771 402.232 58.1785 402.26 58.59ZM402.45 70.01C402.429 70.3901 402.584 70.7588 402.87 71.01H402.8C403.415 71.4767 404.265 71.4767 404.88 71.01C405.159 70.7544 405.309 70.3878 405.29 70.01V63.01C405.309 62.6322 405.159 62.2656 404.88 62.01C404.596 61.7838 404.243 61.6636 403.88 61.67C403.518 61.6661 403.165 61.786 402.88 62.01C402.588 62.2574 402.428 62.6277 402.45 63.01V70.01Z" fill="#000638"/>
<path fill-rule="evenodd" clip-rule="evenodd" d="M407.75 69.07C408.152 69.8022 408.761 70.4002 409.5 70.79H409.47C411.135 71.606 413.085 71.606 414.75 70.79C415.487 70.3974 416.095 69.8001 416.5 69.07C416.925 68.2707 417.135 67.3748 417.11 66.47C417.134 65.5621 416.924 64.6634 416.5 63.86C416.105 63.1347 415.508 62.5404 414.78 62.15C413.108 61.3631 411.172 61.3631 409.5 62.15C408.759 62.5327 408.15 63.1282 407.75 63.86C407.323 64.6624 407.109 65.5612 407.13 66.47C407.108 67.3757 407.322 68.2715 407.75 69.07ZM413.71 64.5C414.11 65.0874 414.303 65.7908 414.26 66.5C414.26 68.28 413.55 69.25 412.14 69.25C410.73 69.25 410.02 68.35 410.02 66.54C410.02 64.73 410.73 63.82 412.14 63.82C412.741 63.7881 413.322 64.0398 413.71 64.5Z" fill="#000638"/>
<path d="M427.37 62.55C427.983 63.4245 428.273 64.4851 428.19 65.55V70C428.21 70.3739 428.068 70.7384 427.8 71C427.506 71.2603 427.122 71.3934 426.73 71.37C426.341 71.3929 425.96 71.2597 425.67 71C425.409 70.7345 425.271 70.3718 425.29 70V65.68C425.329 65.1831 425.203 64.6871 424.93 64.27C424.648 63.9601 424.238 63.7977 423.82 63.83C423.276 63.8066 422.748 64.0178 422.37 64.41C421.988 64.8291 421.79 65.3838 421.82 65.95V69.95C421.839 70.3218 421.701 70.6845 421.44 70.95C421.15 71.2097 420.769 71.3429 420.38 71.32C419.988 71.3434 419.604 71.2103 419.31 70.95C419.039 70.6894 418.894 70.3253 418.91 69.95V62.92C418.888 62.5396 419.043 62.1703 419.33 61.92C419.629 61.6706 420.011 61.5422 420.4 61.56C420.767 61.5355 421.128 61.6619 421.4 61.91C421.649 62.1497 421.784 62.4846 421.77 62.83V63.09C422.094 62.593 422.542 62.1896 423.07 61.92C423.631 61.6483 424.247 61.5113 424.87 61.52C425.817 61.4657 426.736 61.8447 427.37 62.55V62.55Z" fill="#000638"/>
<path d="M293.79 45.1C293.136 45.0984 292.485 45.1961 291.86 45.39C288.747 46.3307 286.795 49.4136 287.277 52.6302C287.758 55.8468 290.528 58.2227 293.78 58.21C294.435 58.2082 295.086 58.1071 295.71 57.91C298.806 56.9567 300.74 53.883 300.26 50.6791C299.78 47.4752 297.03 45.1037 293.79 45.1" fill="#FFD68E"/>
<path d="M291.98 47.92C292.593 49.8548 291.976 51.9682 290.417 53.2688C288.859 54.5693 286.669 54.7988 284.875 53.8497C283.081 52.9006 282.039 50.9612 282.237 48.9413C282.436 46.9214 283.836 45.2219 285.78 44.64C288.396 43.8573 291.155 45.3173 291.98 47.92V47.92Z" fill="#FFAD1D"/>
<path d="M306.17 63.63C306.966 66.2215 305.511 68.968 302.92 69.7651C300.329 70.5622 297.582 69.1082 296.784 66.5171C295.986 63.9261 297.439 61.1787 300.03 60.38C302.623 59.5865 305.368 61.0399 306.17 63.63V63.63Z" fill="#FFAD1D"/>
<path d="M275.83 56.37C275.491 56.3716 275.154 56.4221 274.83 56.52C273.14 57.041 272.137 58.7765 272.53 60.5007C272.923 62.2249 274.578 63.3549 276.327 63.0926C278.076 62.8303 279.327 61.2643 279.197 59.5007C279.066 57.7372 277.598 56.3722 275.83 56.37" fill="#FFC560"/>
<path d="M307.1 50.31C306.849 50.3129 306.601 50.3499 306.36 50.42C305.187 50.796 304.461 51.9673 304.645 53.1849C304.828 54.4026 305.869 55.3071 307.1 55.32C307.351 55.3219 307.601 55.2848 307.84 55.21C309.013 54.834 309.739 53.6627 309.555 52.445C309.372 51.2274 308.331 50.3229 307.1 50.31" fill="#FFEDBA"/>
<path d="M280.19 30.92C279.635 30.9212 279.082 31.002 278.55 31.16C275.739 32.0099 274.059 34.8845 274.698 37.7512C275.337 40.6179 278.08 42.5061 280.986 42.0809C283.892 41.6556 285.978 39.0607 285.769 36.131C285.56 33.2013 283.127 30.9287 280.19 30.92" fill="#FFDEA5"/>
<path d="M302.5 21.2C301.462 21.1986 300.43 21.3572 299.44 21.67C294.521 23.1837 291.449 28.0678 292.215 33.1572C292.98 38.2466 297.353 42.0106 302.5 42.01C308.121 41.8357 312.587 37.2287 312.587 31.605C312.587 25.9813 308.121 21.3743 302.5 21.2" fill="#FFF7E8"/>
<path d="M312.69 27.06C310.391 27.0639 308.502 28.8748 308.401 31.1712C308.3 33.4676 310.023 35.4373 312.313 35.6428C314.602 35.8482 316.648 34.2168 316.958 31.9392C317.268 29.6615 315.731 27.5431 313.47 27.13C313.213 27.0819 312.952 27.0585 312.69 27.06" fill="#FFBD4A"/>
</svg>
